<svg width="16" height="16" viewBox="0 0 16 16" fill="none" xmlns="http://www.w3.org/2000/svg">
<rect width="16" height="16" rx="4" fill="#333333"/>
<path d="M6.74771 5.80106L3 6.26051V7.73991L6.74771 7.31316V5.80106Z" fill="white"/>
<path d="M5.71581 13V7.96712L4.04153 8.11236V13H5.71581Z" fill="white"/>
<path d="M7.6689 4.43759C7.1021 5.26457 7.04278 6.24025 7.09221 7.26909L8.95578 7.08931C8.95578 6.85212 8.90466 6.41104 9.06119 5.93873C9.21772 5.46642 9.68372 5.22478 9.8677 5.17161V3.0679C9.37736 3.17237 8.3774 3.40386 7.6689 4.43759Z" fill="white"/>
<path d="M11.8608 3.41565C11.1402 2.90798 10.3286 2.99949 10.2446 3.01872L10.2364 5.10333C10.3807 5.10333 10.7668 5.18963 10.9546 5.51795C11.2246 5.98999 11.0514 6.53808 10.7335 7.08931C10.4156 7.64053 9.47187 8.58276 8.99997 9C8.86343 9.12072 7.70144 10.2392 7.17418 10.7785L10.2059 10.671C10.4174 10.4313 11.1074 9.62349 11.4962 9.14168C11.9823 8.53942 12.3365 7.91919 12.4931 7.64053C12.8061 7.08322 12.9627 6.50793 12.9956 5.79781C13.0286 5.08769 12.8951 4.14438 11.8608 3.41565Z" fill="white"/>
<path d="M12.9953 11.0718L6.74316 11.2695V12.9999H12.9953V11.0718Z" fill="white"/>
</svg>
