<svg width="629" height="159" viewBox="0 0 629 159" fill="none" xmlns="http://www.w3.org/2000/svg">
<path fill-rule="evenodd" clip-rule="evenodd" d="M152.01 110.989C151.221 110.987 150.45 110.752 149.794 110.312C149.139 109.873 148.629 109.249 148.328 108.519C148.027 107.79 147.949 106.987 148.104 106.213C148.259 105.439 148.64 104.729 149.198 104.171C149.757 103.614 150.468 103.235 151.242 103.081C152.016 102.928 152.819 103.007 153.548 103.31C154.277 103.612 154.9 104.124 155.338 104.78C155.776 105.436 156.01 106.208 156.01 106.997C156.008 108.056 155.586 109.072 154.836 109.82C154.086 110.569 153.07 110.989 152.01 110.989ZM153.09 109.323C153.04 109.384 153.03 109.558 153.16 109.504C153.327 109.307 153.465 109.088 153.57 108.853C153.571 108.858 153.574 108.863 153.577 108.868C153.581 108.872 153.585 108.876 153.59 108.878C153.602 108.837 153.609 108.795 153.61 108.753C153.62 108.742 153.63 108.712 153.62 108.744C153.629 108.701 153.622 108.657 153.6 108.619C153.54 108.681 153.489 108.752 153.45 108.829C153.35 108.958 153.12 108.966 153.18 109.185C153.16 109.142 153.15 109.095 153.15 109.047C153.146 109.057 153.139 109.065 153.13 109.07C153.121 109.075 153.11 109.078 153.1 109.077C153.111 108.961 153.134 108.847 153.17 108.737C153.151 108.785 153.127 108.831 153.1 108.875C153.069 108.872 153.037 108.88 153.01 108.896C153.011 108.931 153.02 108.965 153.035 108.996C153.051 109.028 153.073 109.055 153.1 109.077H153.11C153.114 109.16 153.107 109.242 153.09 109.323ZM152.01 104.069C151.74 104.07 151.47 104.108 151.21 104.181C151.155 104.231 151.094 104.275 151.03 104.313C150.948 104.326 150.871 104.363 150.81 104.419C150.817 104.457 150.814 104.496 150.802 104.533C150.789 104.57 150.768 104.603 150.74 104.629C150.652 104.644 150.565 104.666 150.48 104.696C150.413 104.826 150.332 104.948 150.24 105.062C150.43 105.092 150.2 105.234 150.1 105.318C150.012 105.405 149.935 105.502 149.87 105.608C149.82 105.672 149.74 105.677 149.7 105.739C149.582 105.853 149.484 105.986 149.41 106.133C149.327 106.276 149.276 106.435 149.26 106.599C149.211 106.766 149.211 106.944 149.258 107.112C149.306 107.28 149.4 107.43 149.53 107.547C149.672 107.556 149.814 107.541 149.95 107.502C149.973 107.475 150.002 107.453 150.035 107.439C150.068 107.425 150.104 107.418 150.139 107.42C150.175 107.421 150.21 107.431 150.241 107.448C150.273 107.466 150.3 107.49 150.32 107.519C150.4 107.659 150.48 107.504 150.56 107.57C150.599 107.666 150.626 107.767 150.64 107.87C150.48 108.032 150.87 108.334 150.96 108.47C151.039 108.587 151.087 108.722 151.1 108.863C151.055 108.937 151.04 109.026 151.056 109.111C151.073 109.196 151.121 109.272 151.19 109.324C151.35 109.512 151.51 109.711 151.66 109.899C151.776 109.914 151.893 109.921 152.01 109.921C152.07 109.921 152.13 109.921 152.2 109.912C152.305 109.853 152.386 109.76 152.43 109.648C152.45 109.565 152.64 109.541 152.59 109.392C152.54 109.243 152.66 109.169 152.8 109.092C152.881 109.053 152.947 108.988 152.985 108.906C153.023 108.825 153.032 108.732 153.01 108.645C152.973 108.487 152.949 108.327 152.94 108.165C153.013 108.015 153.1 107.873 153.2 107.74C153.392 107.53 153.539 107.283 153.63 107.013C153.672 106.903 153.686 106.785 153.67 106.668C153.52 106.749 153.358 106.804 153.19 106.83C153.11 106.668 152.975 106.539 152.81 106.465C152.68 106.323 152.581 106.156 152.52 105.973C152.393 105.835 152.289 105.678 152.21 105.507C152.309 105.548 152.399 105.609 152.475 105.685C152.55 105.761 152.61 105.851 152.65 105.951C152.718 106.087 152.822 106.202 152.95 106.283C152.99 106.411 153.041 106.536 153.1 106.656C153.31 106.62 153.502 106.518 153.65 106.365C153.63 106.273 153.72 106.241 153.79 106.223C153.8 106.172 153.821 106.124 153.85 106.082C153.89 106.023 153.84 105.946 153.9 105.951C153.907 105.907 153.903 105.863 153.889 105.82C153.875 105.778 153.851 105.74 153.82 105.709C153.77 105.656 153.69 105.676 153.63 105.625C153.612 105.578 153.585 105.535 153.55 105.498C153.53 105.547 153.56 105.715 153.46 105.676C153.32 105.72 153.39 105.597 153.29 105.541C153.28 105.693 153.23 105.523 153.17 105.484C153.093 105.443 153.033 105.376 153 105.295C153.141 105.344 153.276 105.412 153.4 105.495C153.417 105.504 153.436 105.506 153.455 105.501C153.473 105.497 153.489 105.486 153.5 105.47C153.56 105.4 153.59 105.521 153.62 105.542C153.773 105.571 153.93 105.565 154.08 105.525C154.148 105.603 154.239 105.657 154.34 105.677C154.38 105.754 154.31 105.692 154.32 105.719C154.356 105.772 154.409 105.812 154.47 105.832C154.483 105.815 154.489 105.794 154.487 105.773C154.486 105.753 154.476 105.733 154.46 105.719C154.571 105.856 154.662 106.009 154.73 106.172C154.78 106.249 154.84 106.398 154.9 106.525C154.786 105.84 154.433 105.218 153.904 104.768C153.375 104.319 152.704 104.071 152.01 104.069ZM152.74 104.636C152.661 104.552 152.574 104.477 152.48 104.412C152.48 104.33 152.61 104.224 152.64 104.354C152.628 104.357 152.617 104.364 152.608 104.374C152.599 104.383 152.593 104.394 152.59 104.407C152.765 104.503 152.91 104.645 153.01 104.817C152.981 104.831 152.948 104.836 152.916 104.831C152.884 104.827 152.854 104.812 152.83 104.79C152.76 104.8 152.7 104.654 152.74 104.636ZM152.82 104.336C152.829 104.323 152.832 104.308 152.83 104.293C152.88 104.308 152.93 104.415 152.98 104.426C152.93 104.484 152.84 104.365 152.82 104.334V104.336ZM152.1 104.577C152.01 104.591 151.92 104.71 151.83 104.633C151.825 104.561 151.835 104.489 151.86 104.421C151.95 104.321 151.89 104.421 151.98 104.388C151.98 104.394 151.978 104.4 151.974 104.405C151.971 104.411 151.966 104.415 151.96 104.417C151.96 104.417 152.49 104.522 152.32 104.629C152.243 104.637 152.165 104.618 152.1 104.575V104.577ZM152.22 104.892C152.21 104.916 152.27 105.406 152.1 105.28C152.091 105.272 152.08 105.266 152.069 105.262C152.057 105.258 152.045 105.257 152.032 105.258C152.02 105.259 152.008 105.262 151.998 105.268C151.987 105.274 151.978 105.282 151.97 105.292C151.881 105.317 151.787 105.314 151.7 105.285C151.665 105.254 151.622 105.234 151.575 105.228C151.529 105.222 151.482 105.23 151.44 105.252C151.31 105.374 151.46 105.411 151.27 105.362C151.15 105.334 151.19 105.224 151.03 105.262C151 105.249 150.973 105.23 150.95 105.206C150.979 105.13 151.013 105.055 151.05 104.982C150.93 104.867 150.45 105.258 150.33 105.159C150.33 105.138 150.64 104.894 150.69 104.848C150.782 104.736 150.903 104.653 151.04 104.606C151.14 104.537 151.2 104.649 151.25 104.742C151.36 104.931 151.12 104.842 151.12 104.942C151.25 104.989 151.24 104.958 151.32 104.865C151.38 104.803 151.31 104.73 151.41 104.782C151.46 104.734 151.1 104.525 151.3 104.471C151.26 104.518 151.55 104.661 151.45 104.735C151.56 104.864 151.49 104.955 151.61 104.976C151.605 104.943 151.605 104.909 151.61 104.876C151.617 104.875 151.625 104.876 151.631 104.878C151.638 104.881 151.645 104.884 151.65 104.889C151.628 104.836 151.612 104.781 151.6 104.725C151.68 104.741 151.63 104.762 151.65 104.704C151.665 104.695 151.683 104.691 151.7 104.691C151.718 104.691 151.735 104.695 151.75 104.704C151.68 104.793 151.81 104.752 151.74 104.833C151.771 104.861 151.795 104.895 151.81 104.933C151.948 104.954 152.089 104.94 152.22 104.89V104.892ZM150.98 104.87C151.001 104.87 151.021 104.866 151.04 104.858C151.068 104.784 151.091 104.709 151.11 104.633C151.047 104.699 151.002 104.78 150.98 104.868V104.87ZM150.74 104.638V104.631C150.76 104.626 150.777 104.614 150.79 104.599C150.77 104.591 150.76 104.642 150.74 104.636V104.638ZM149.31 101.338C149.297 101.588 149.234 101.832 149.126 102.057C149.018 102.283 148.867 102.485 148.68 102.651V103.275C148.15 103.739 147.726 104.311 147.434 104.952C147.143 105.594 146.991 106.29 146.99 106.994C146.991 107.337 147.028 107.678 147.1 108.013H141.98C141.918 107.136 141.982 106.254 142.17 105.395C142.47 104.895 142.55 104.787 143.84 104.328C144.381 104.151 144.912 103.945 145.43 103.709L145.44 102.651C145.254 102.485 145.102 102.283 144.994 102.057C144.886 101.832 144.823 101.588 144.81 101.338C144.649 101.323 144.497 101.252 144.383 101.137C144.268 101.022 144.196 100.871 144.18 100.71C144.16 100.476 144.22 99.828 144.59 99.893C144.515 99.5113 144.478 99.123 144.48 98.734C144.686 98.2185 145.042 97.7766 145.502 97.4653C145.962 97.1541 146.505 96.9877 147.06 96.9877C147.615 96.9877 148.158 97.1541 148.618 97.4653C149.078 97.7766 149.434 98.2185 149.64 98.734C149.642 99.123 149.605 99.5113 149.53 99.893C149.9 99.828 149.96 100.476 149.94 100.71C149.923 100.871 149.851 101.021 149.736 101.134C149.622 101.248 149.471 101.319 149.31 101.334V101.338Z" fill="#333333"/>
<path fill-rule="evenodd" clip-rule="evenodd" d="M483 150.213L482 150C480.939 150 479.922 149.579 479.172 148.828C478.421 148.078 478 147.061 478 146L477.79 145L477.6 143H477.4L477.21 145L477 146C477 147.061 476.579 148.078 475.828 148.828C475.078 149.579 474.061 150 473 150L472 150.213L470 150.395V147C470 145.939 470.421 144.922 471.172 144.172C471.922 143.421 472.939 143 474 143H481C482.061 143 483.078 143.421 483.828 144.172C484.579 144.922 485 145.939 485 147V150.4L483 150.213ZM472 150.787L473 151C474.061 151 475.078 151.421 475.828 152.172C476.579 152.922 477 153.939 477 155L477.21 156L477.4 158H477.6L477.79 156L478 155C478 153.939 478.421 152.922 479.172 152.172C479.922 151.421 480.939 151 482 151L483 150.787L485 150.605V154C485 155.061 484.579 156.078 483.828 156.828C483.078 157.579 482.061 158 481 158H474C472.939 158 471.922 157.579 471.172 156.828C470.421 156.078 470 155.061 470 154V150.605L472 150.787Z" fill="#333333"/>
<path fill-rule="evenodd" clip-rule="evenodd" d="M426.5 147C427.192 147 427.869 147.205 428.444 147.59C429.02 147.974 429.469 148.521 429.734 149.161C429.998 149.8 430.068 150.504 429.933 151.183C429.798 151.862 429.464 152.485 428.975 152.975C428.485 153.464 427.862 153.798 427.183 153.933C426.504 154.068 425.8 153.998 425.161 153.734C424.521 153.469 423.974 153.02 423.59 152.445C423.205 151.869 423 151.192 423 150.5C423 149.572 423.369 148.682 424.025 148.025C424.682 147.369 425.572 147 426.5 147ZM434.5 147C435.192 147 435.869 147.205 436.444 147.59C437.02 147.974 437.469 148.521 437.734 149.161C437.998 149.8 438.068 150.504 437.933 151.183C437.798 151.862 437.464 152.485 436.975 152.975C436.485 153.464 435.862 153.798 435.183 153.933C434.504 154.068 433.8 153.998 433.161 153.734C432.521 153.469 431.974 153.02 431.59 152.445C431.205 151.869 431 151.192 431 150.5C431 149.572 431.369 148.682 432.025 148.025C432.682 147.369 433.572 147 434.5 147Z" fill="#333333"/>
<path fill-rule="evenodd" clip-rule="evenodd" d="M485.5 5H480.5C480.367 5 480.24 4.94734 480.146 4.85358C480.053 4.75981 480 4.63261 480 4.5C480 4.36739 480.053 4.24019 480.146 4.14642C480.24 4.05266 480.367 4 480.5 4H485.5C485.633 4 485.76 4.05266 485.854 4.14642C485.947 4.24019 486 4.36739 486 4.5C486 4.63261 485.947 4.75981 485.854 4.85358C485.76 4.94734 485.633 5 485.5 5ZM483 7C484.061 7 485.078 7.42142 485.828 8.17157C486.579 8.92172 487 9.93913 487 11H480.69C480.661 11.3107 480.701 11.624 480.807 11.9175C480.913 12.2111 481.082 12.4777 481.302 12.6985C481.523 12.9193 481.789 13.0888 482.083 13.195C482.376 13.3012 482.689 13.3415 483 13.313C483.448 13.3618 483.899 13.259 484.282 13.021C484.664 12.7829 484.956 12.4234 485.11 12H486.86C486.672 12.7228 486.285 13.3784 485.743 13.8923C485.201 14.4062 484.526 14.7579 483.794 14.9073C483.062 15.0567 482.303 14.9979 481.603 14.7376C480.903 14.4773 480.29 14.0259 479.833 13.4347C479.377 12.8435 479.095 12.1361 479.021 11.3929C478.946 10.6498 479.081 9.90056 479.411 9.23041C479.741 8.56026 480.252 7.996 480.886 7.60175C481.521 7.20749 482.253 6.99902 483 7ZM485.07 10C484.887 9.60783 484.594 9.2776 484.227 9.04999C483.859 8.82237 483.432 8.70731 483 8.71899C482.554 8.68173 482.108 8.78533 481.724 9.01514C481.34 9.24495 481.038 9.5894 480.86 10H485.07ZM474.5 15H469V4H474C474.54 4.00037 475.071 4.14671 475.535 4.42352C475.999 4.70033 476.379 5.09734 476.637 5.57263C476.894 6.04792 477.018 6.5838 476.995 7.12372C476.973 7.66363 476.805 8.18753 476.51 8.64001C477.117 9.06811 477.572 9.67815 477.809 10.3819C478.046 11.0856 478.054 11.8466 477.83 12.5547C477.606 13.2629 477.163 13.8815 476.564 14.321C475.966 14.7606 475.243 14.9984 474.5 15ZM474 6H471V8H474C474.265 8 474.52 7.89463 474.707 7.70709C474.895 7.51956 475 7.26522 475 7C475 6.73478 474.895 6.48044 474.707 6.29291C474.52 6.10537 474.265 6 474 6ZM474.5 10H471V13H474.5C474.898 13 475.279 12.842 475.561 12.5607C475.842 12.2794 476 11.8978 476 11.5C476 11.1022 475.842 10.7206 475.561 10.4393C475.279 10.158 474.898 10 474.5 10Z" fill="#333333"/>
<path fill-rule="evenodd" clip-rule="evenodd" d="M477.5 63C476.214 63 474.958 62.6188 473.889 61.9045C472.82 61.1903 471.987 60.1752 471.495 58.9874C471.003 57.7997 470.874 56.4928 471.125 55.2319C471.376 53.9711 471.995 52.8129 472.904 51.9038C473.813 50.9948 474.971 50.3757 476.232 50.1249C477.493 49.8741 478.8 50.0029 479.987 50.4948C481.175 50.9868 482.19 51.8199 482.905 52.8888C483.619 53.9577 484 55.2144 484 56.5C484 58.2239 483.315 59.8772 482.096 61.0962C480.877 62.3152 479.224 63 477.5 63ZM482 58.382C481.461 58.2193 480.903 58.1327 480.34 58.125C480.099 58.1291 479.859 58.1471 479.62 58.179C479.807 59.0091 479.907 59.8562 479.92 60.707C480.848 60.1781 481.578 59.3616 482 58.381V58.382ZM478.3 61.294C478.3 61.185 478.31 61.078 478.31 60.968C478.307 60.1685 478.217 59.3717 478.04 58.592C476.925 59.0492 475.968 59.8244 475.29 60.821C475.972 61.1789 476.73 61.3686 477.5 61.374C477.768 61.3689 478.036 61.3418 478.3 61.293V61.294ZM474 59.882C474.877 58.595 476.121 57.6011 477.57 57.029C477.45 56.702 477.3 56.382 477.15 56.07C475.702 56.582 474.131 56.6371 472.65 56.228C472.65 56.319 472.62 56.406 472.62 56.5C472.622 57.7638 473.117 58.977 474 59.881V59.882ZM474.48 52.701C473.833 53.2046 473.324 53.8637 473 54.617C473.539 54.7801 474.097 54.867 474.66 54.875C475.208 54.8712 475.753 54.7935 476.28 54.644C475.761 53.9257 475.156 53.273 474.48 52.7V52.701ZM476 51.883C476.676 52.5137 477.28 53.2181 477.8 53.983C478.555 53.5223 479.203 52.9051 479.7 52.173C479.021 51.8172 478.267 51.6296 477.5 51.626C476.99 51.6318 476.483 51.7183 476 51.882V51.883ZM481.01 53.134C480.388 54.0489 479.577 54.8188 478.63 55.391C478.824 55.7841 478.998 56.187 479.15 56.598C479.544 56.534 479.941 56.5006 480.34 56.498C481.019 56.4987 481.695 56.5905 482.35 56.771C482.35 56.679 482.37 56.592 482.37 56.499C482.37 55.2431 481.883 54.0362 481.01 53.133V53.134Z" fill="#333333"/>
<path fill-rule="evenodd" clip-rule="evenodd" d="M433 61V55H435V61H433ZM433 51H435V53H433V51ZM425 61V51H427V59H431V61H425Z" fill="#333333"/>
<path fill-rule="evenodd" clip-rule="evenodd" d="M11 151L12.358 149.643C11.7028 149.004 10.8888 148.551 10 148.331V146.289C11.4073 146.584 12.7062 147.261 13.754 148.246L15 147V151H11ZM7 155.967C3.1 155.792 0 153.648 0 151C0 148.582 2.577 146.565 6 146.1V148.127C3.7 148.485 2 149.627 2 151C2 152.563 4.2 153.832 7 153.972V145L9 144V155L7 156V155.967Z" fill="#333333"/>
<path fill-rule="evenodd" clip-rule="evenodd" d="M376 146.888L380.42 143.999L383.5 146.585L379.06 149.353L376 146.888ZM391 146.888L386.58 144L383.5 146.586L387.94 149.354L391 146.888ZM383.5 151.573L387.94 149.353L391 151.27L386.6 154.159L383.5 151.573ZM383.5 151.573L379.06 149.353L376 151.27L380.4 154.159L383.5 151.573ZM379.1 154.383V155.333L383.5 157.999L387.92 155.353V154.4L386.62 155.228L383.5 152.642L380.4 155.228L379.1 154.383Z" fill="#333333"/>
<path d="M386.661 102.141L385.091 104.217C385.217 104.207 385.723 104.186 385.966 104.186H386.598V103.437C386.598 102.9 386.64 102.278 386.661 102.141Z" fill="#333333"/>
<path fill-rule="evenodd" clip-rule="evenodd" d="M383.5 112C388.194 112 392 108.195 392 103.5C392 98.8057 388.194 95.0001 383.5 95.0001C378.806 95.0001 375 98.8057 375 103.5C375 108.195 378.806 112 383.5 112ZM383.046 107H377.997C378.169 104.927 379.395 104.035 380.336 103.35C380.951 102.904 381.444 102.545 381.444 102.004C381.444 101.403 380.948 101.192 380.421 101.192C379.715 101.192 379.135 101.424 378.598 101.667L378.229 100.56C378.829 100.286 379.662 99.9801 380.653 99.9801C382.202 99.9801 382.951 100.76 382.951 101.856C382.951 102.942 382.107 103.586 381.294 104.205C380.67 104.68 380.065 105.142 379.873 105.777H383.046V107ZM386.598 105.345H383.489V104.428L386.967 100.001H388V104.186H389.033V105.345H388V107H386.598V105.345Z" fill="#333333"/>
<path fill-rule="evenodd" clip-rule="evenodd" d="M425 98.646L432 95.999L436 97.764V109.235L432 111L425 108L432 109V99L427 100V107L425 108V98.647V98.646Z" fill="#333333"/>
<path fill-rule="evenodd" clip-rule="evenodd" d="M54.5 49C55.6928 49.0012 56.868 49.2877 57.9274 49.8357C58.9869 50.3837 59.8998 51.1772 60.59 52.15L58.154 53.89C57.79 53.3737 57.3205 52.9406 56.7766 52.6194C56.2326 52.2982 55.6266 52.0963 54.9987 52.027C54.3708 51.9577 53.7353 52.0226 53.1344 52.2174C52.5335 52.4122 51.9808 52.7325 51.513 53.157L49.531 50.892C50.8991 49.673 52.6676 48.9996 54.5 49ZM58.5 59H54V56H62V59C61.4688 60.3936 60.5225 61.5906 59.289 62.429L56.107 60.695C57.0657 60.401 57.9046 59.8068 58.5 59ZM56.142 60.712L59.277 62.422C57.8854 63.4279 56.217 63.9791 54.5 64C53.513 64.0012 52.5356 63.807 51.624 63.4286C50.7125 63.0501 49.8849 62.4949 49.189 61.795L51.298 59.658C51.7157 60.0833 52.2141 60.4211 52.7639 60.6515C53.3137 60.8819 53.9039 61.0004 54.5 61C55.0585 60.9951 55.6123 60.8978 56.139 60.712H56.142ZM51.516 53.157C51.0593 53.5599 50.6898 54.0519 50.4301 54.6028C50.1704 55.1537 50.026 55.7519 50.0059 56.3606C49.9857 56.9693 50.0902 57.5757 50.3129 58.1426C50.5357 58.7094 50.8719 59.2248 51.301 59.657L49.192 61.793C48.4691 61.0717 47.902 60.2094 47.5261 59.2598C47.1503 58.3102 46.9735 57.2935 47.0069 56.2727C47.0403 55.252 47.283 54.2489 47.7202 53.3259C48.1573 52.4029 48.7794 51.5796 49.548 50.907L51.516 53.157Z" fill="#333333"/>
<path fill-rule="evenodd" clip-rule="evenodd" d="M386.09 56.441C386.092 56.0733 386.02 55.7089 385.879 55.3693C385.738 55.0297 385.531 54.7217 385.269 54.4635C385.007 54.2053 384.696 54.002 384.355 53.8657C384.013 53.7295 383.648 53.6629 383.28 53.67H383.22C382.842 53.6773 382.47 53.7627 382.127 53.9208C381.784 54.0789 381.477 54.3064 381.227 54.5889C380.976 54.8714 380.786 55.2028 380.67 55.5622C380.553 55.9215 380.513 56.3011 380.55 56.677C380.516 57.0481 380.559 57.4222 380.677 57.7755C380.796 58.1288 380.987 58.4534 381.239 58.7285C381.49 59.0035 381.796 59.223 382.137 59.3727C382.479 59.5225 382.847 59.5992 383.22 59.598C383.972 59.6039 384.696 59.312 385.234 58.7862C385.771 58.2603 386.079 57.5431 386.09 56.791V56.441ZM383.23 52.123C383.799 52.1336 384.36 52.2592 384.879 52.4922C385.398 52.7252 385.864 53.0609 386.25 53.479C386.242 53.3926 386.252 53.3054 386.278 53.2229C386.305 53.1403 386.348 53.064 386.405 52.9986C386.462 52.9331 386.532 52.88 386.61 52.8422C386.688 52.8045 386.773 52.783 386.86 52.779H386.96C387.144 52.7868 387.318 52.8672 387.444 53.0026C387.569 53.138 387.636 53.3175 387.63 53.502V59.68C387.614 59.761 387.624 59.8449 387.66 59.9196C387.695 59.9943 387.753 60.0559 387.825 60.0954C387.898 60.1348 387.981 60.1502 388.063 60.1392C388.144 60.1281 388.221 60.0913 388.28 60.034C389.23 59.015 390.37 54.794 387.68 52.348C386.659 51.4054 385.352 50.8318 383.968 50.7187C382.583 50.6056 381.2 50.9595 380.04 51.724C378.97 52.5474 378.201 53.6995 377.851 55.0031C377.5 56.3066 377.588 57.6892 378.1 58.938C378.687 60.2581 379.75 61.309 381.076 61.8818C382.403 62.4546 383.896 62.5076 385.26 62.0301C386.37 61.5651 386.88 63.124 385.73 63.63C384.092 64.1635 382.321 64.1187 380.712 63.5031C379.103 62.8876 377.754 61.7385 376.89 60.248C375.992 58.6206 375.721 56.7202 376.129 54.9066C376.537 53.0929 377.595 51.4917 379.104 50.4059C380.613 49.3201 382.468 48.825 384.317 49.0143C386.167 49.2036 387.882 50.064 389.14 51.433C391.72 54.233 391.56 59.477 389.05 61.515C388.796 61.7128 388.492 61.8363 388.172 61.8718C387.852 61.9073 387.529 61.8534 387.238 61.7161C386.947 61.5788 386.699 61.3635 386.523 61.0941C386.347 60.8247 386.249 60.5118 386.24 60.19L386.23 59.749C385.844 60.1569 385.379 60.4824 384.863 60.7058C384.347 60.9292 383.792 61.046 383.23 61.049C382.08 60.9974 380.995 60.5044 380.2 59.6726C379.404 58.8408 378.961 57.7343 378.961 56.5835C378.961 55.4327 379.404 54.3263 380.2 53.4945C380.995 52.6627 382.08 52.1696 383.23 52.118" fill="#333333"/>
<path fill-rule="evenodd" clip-rule="evenodd" d="M431 16C429.674 16 428.402 15.4732 427.464 14.5355C426.527 13.5978 426 12.3261 426 11V3C426 2.73478 426.105 2.48044 426.293 2.29291C426.48 2.10537 426.735 2 427 2C427.265 2 427.52 2.10537 427.707 2.29291C427.895 2.48044 428 2.73478 428 3V7.02197C428.632 6.5447 429.369 6.22472 430.149 6.08844C430.93 5.95216 431.731 6.00355 432.488 6.23828C433.244 6.47302 433.934 6.88437 434.5 7.43842C435.067 7.99246 435.493 8.6733 435.744 9.42462C435.995 10.1759 436.064 10.9762 435.944 11.7593C435.825 12.5425 435.521 13.2859 435.057 13.9283C434.594 14.5708 433.984 15.0937 433.279 15.4539C432.573 15.8141 431.792 16.0013 431 16ZM431 8C430.407 8 429.827 8.17597 429.333 8.50562C428.84 8.83526 428.455 9.30375 428.228 9.85193C428.001 10.4001 427.942 11.0033 428.058 11.5853C428.173 12.1672 428.459 12.7018 428.879 13.1213C429.298 13.5409 429.833 13.8266 430.415 13.9424C430.997 14.0581 431.6 13.9987 432.148 13.7717C432.696 13.5446 433.165 13.16 433.494 12.6667C433.824 12.1733 434 11.5933 434 11C434 10.2044 433.684 9.44127 433.121 8.87866C432.559 8.31605 431.796 8 431 8Z" fill="#333333"/>
<path fill-rule="evenodd" clip-rule="evenodd" d="M145 143H152C153.061 143 154.078 143.421 154.828 144.172C155.579 144.922 156 145.939 156 147V154C156 155.061 155.579 156.078 154.828 156.828C154.078 157.579 153.061 158 152 158H145C143.939 158 142.922 157.579 142.172 156.828C141.421 156.078 141 155.061 141 154V147C141 145.939 141.421 144.922 142.172 144.172C142.922 143.421 143.939 143 145 143ZM145 145H152C152.53 145 153.039 145.211 153.414 145.586C153.789 145.961 154 146.47 154 147V154C154 154.53 153.789 155.039 153.414 155.414C153.039 155.789 152.53 156 152 156H145C144.47 156 143.961 155.789 143.586 155.414C143.211 155.039 143 154.53 143 154V147C143 146.47 143.211 145.961 143.586 145.586C143.961 145.211 144.47 145 145 145ZM148.5 147C149.192 147 149.869 147.205 150.445 147.59C151.02 147.974 151.469 148.521 151.734 149.161C151.998 149.8 152.068 150.504 151.933 151.183C151.798 151.862 151.464 152.485 150.975 152.975C150.485 153.464 149.862 153.798 149.183 153.933C148.504 154.068 147.8 153.998 147.161 153.734C146.521 153.469 145.974 153.02 145.59 152.445C145.205 151.869 145 151.192 145 150.5C145 149.572 145.369 148.682 146.025 148.025C146.682 147.369 147.572 147 148.5 147ZM148.5 149C148.797 149 149.087 149.088 149.333 149.253C149.58 149.418 149.772 149.652 149.886 149.926C149.999 150.2 150.029 150.502 149.971 150.793C149.913 151.084 149.77 151.351 149.561 151.561C149.351 151.77 149.084 151.913 148.793 151.971C148.502 152.029 148.2 151.999 147.926 151.886C147.652 151.772 147.418 151.58 147.253 151.333C147.088 151.087 147 150.797 147 150.5C147 150.102 147.158 149.721 147.439 149.439C147.721 149.158 148.102 149 148.5 149Z" fill="#333333"/>
<path fill-rule="evenodd" clip-rule="evenodd" d="M105 157H97.9999C96.8954 156.954 95.8541 156.472 95.1043 155.66C94.3546 154.847 93.9574 153.771 93.9999 152.666V148.333C93.9579 147.229 94.3553 146.152 95.105 145.34C95.8547 144.528 96.8956 144.046 97.9999 144H105C106.104 144.046 107.145 144.528 107.895 145.341C108.645 146.153 109.042 147.229 109 148.334V152.667C109.042 153.772 108.645 154.848 107.895 155.66C107.145 156.472 106.104 156.954 105 157ZM107 148.255C107.031 147.693 106.837 147.141 106.463 146.72C106.088 146.3 105.562 146.044 105 146.01H97.9999C97.4377 146.044 96.9118 146.3 96.5371 146.72C96.1624 147.141 95.9693 147.693 95.9999 148.255V152.744C95.9693 153.306 96.1624 153.858 96.5371 154.279C96.9118 154.699 97.4377 154.955 97.9999 154.989H105C105.562 154.955 106.088 154.699 106.463 154.279C106.837 153.858 107.031 153.306 107 152.744V148.255ZM99.9999 147.987L104 150.499L99.9999 153.011V147.987Z" fill="#333333"/>
<path fill-rule="evenodd" clip-rule="evenodd" d="M340.98 155.1C340.961 155.299 340.884 155.488 340.757 155.642C340.63 155.797 340.46 155.909 340.269 155.966C340.077 156.023 339.873 156.021 339.682 155.961C339.492 155.901 339.324 155.785 339.2 155.628C338.11 154.762 336.41 153.514 336.41 153.514C336.41 153.514 335.18 155.681 334.96 155.903C334.887 155.964 334.803 156.009 334.712 156.036C334.62 156.062 334.525 156.07 334.431 156.057C334.337 156.045 334.246 156.013 334.165 155.963C334.084 155.914 334.014 155.848 333.96 155.77C333.949 155.736 333.935 155.702 333.92 155.67L334.61 152.218L339.53 147.385L332.82 151.214C332.82 151.214 329.79 150.308 329.34 150.131C329.224 150.068 329.128 149.973 329.064 149.857C329 149.741 328.969 149.61 328.977 149.478C328.984 149.346 329.029 149.219 329.105 149.111C329.182 149.003 329.288 148.919 329.41 148.869C330.05 148.543 341.34 144.231 341.72 144.12C342.1 144.009 343.1 143.72 342.99 144.693C342.88 145.666 341.09 154.565 340.98 155.1Z" fill="#333333"/>
<path fill-rule="evenodd" clip-rule="evenodd" d="M345 107C345 108.326 344.473 109.598 343.535 110.536C342.598 111.473 341.326 112 340 112C338.902 111.998 337.835 111.629 336.97 110.953C336.81 110.963 336.66 111 336.5 111C334.511 111 332.603 110.21 331.197 108.803C329.79 107.397 329 105.489 329 103.5C329 103.339 329.04 103.189 329.05 103.03C328.373 102.165 328.003 101.099 328 100C327.995 99.0664 328.253 98.1504 328.744 97.3565C329.236 96.5627 329.94 95.9231 330.778 95.5108C331.616 95.0986 332.552 94.9303 333.481 95.0253C334.41 95.1203 335.293 95.4747 336.03 96.048C336.19 96.038 336.34 96 336.5 96C338.489 96 340.397 96.7902 341.803 98.1967C343.21 99.6032 344 101.511 344 103.5C344 103.661 343.96 103.812 343.95 103.97C344.627 104.835 344.997 105.901 345 107ZM339.78 104.1C339.62 103.798 339.39 103.538 339.11 103.343C338.791 103.131 338.444 102.963 338.08 102.843C337.67 102.704 337.22 102.579 336.73 102.465C336.34 102.365 336.05 102.292 335.88 102.241C335.706 102.19 335.538 102.119 335.38 102.031C335.227 101.957 335.094 101.848 334.99 101.714C334.9 101.59 334.854 101.439 334.86 101.286C334.864 101.147 334.902 101.011 334.972 100.891C335.042 100.77 335.141 100.669 335.26 100.597C335.588 100.388 335.972 100.286 336.36 100.304C336.733 100.273 337.106 100.367 337.42 100.571C337.661 100.777 337.852 101.035 337.98 101.325C338.073 101.507 338.191 101.675 338.33 101.825C338.467 101.938 338.643 101.994 338.82 101.982C338.93 101.985 339.039 101.963 339.139 101.918C339.24 101.873 339.329 101.807 339.4 101.723C339.546 101.563 339.628 101.355 339.63 101.138C339.626 100.889 339.564 100.644 339.45 100.422C339.306 100.152 339.109 99.9133 338.87 99.722C338.579 99.4855 338.247 99.3058 337.89 99.192C337.434 99.0506 336.958 98.9831 336.48 98.992C335.876 98.9782 335.275 99.08 334.71 99.292C334.248 99.4614 333.845 99.7607 333.55 100.154C333.282 100.528 333.141 100.979 333.15 101.44C333.136 101.894 333.269 102.341 333.53 102.713C333.795 103.063 334.147 103.339 334.55 103.513C335.062 103.736 335.594 103.908 336.14 104.026C336.61 104.131 336.99 104.231 337.27 104.326C337.525 104.405 337.757 104.542 337.95 104.726C338.035 104.816 338.101 104.922 338.144 105.038C338.187 105.154 338.206 105.277 338.2 105.401C338.201 105.576 338.157 105.749 338.073 105.902C337.989 106.056 337.868 106.186 337.72 106.28C337.347 106.534 336.901 106.659 336.45 106.636C336.137 106.65 335.825 106.589 335.54 106.46C335.326 106.356 335.141 106.203 335 106.012C334.854 105.8 334.733 105.571 334.64 105.331C334.572 105.127 334.455 104.943 334.3 104.794C334.167 104.671 333.991 104.604 333.81 104.609C333.701 104.605 333.592 104.624 333.49 104.664C333.389 104.705 333.297 104.766 333.22 104.844C333.143 104.917 333.082 105.006 333.041 105.104C332.999 105.202 332.979 105.308 332.98 105.414C332.993 105.825 333.125 106.223 333.36 106.56C333.608 106.949 333.948 107.271 334.35 107.498C335.011 107.848 335.753 108.017 336.5 107.987C337.148 108.003 337.792 107.881 338.39 107.629C338.881 107.423 339.301 107.08 339.6 106.64C339.88 106.217 340.027 105.719 340.02 105.212C340.03 104.827 339.948 104.446 339.78 104.1Z" fill="#333333"/>
<path fill-rule="evenodd" clip-rule="evenodd" d="M336.5 64C335.086 63.9964 333.702 63.5906 332.51 62.83L329 64L330.17 60.489C329.289 59.0823 328.9 57.4224 329.064 55.7706C329.229 54.1187 329.939 52.5685 331.081 51.3637C332.223 50.1589 333.733 49.368 335.374 49.1153C337.015 48.8626 338.693 49.1624 340.145 49.9676C341.596 50.7728 342.739 52.0377 343.393 53.5634C344.048 55.0891 344.176 56.7891 343.759 58.3959C343.342 60.0026 342.402 61.4251 341.088 62.4396C339.774 63.454 338.16 64.003 336.5 64ZM338.13 57.636C338.629 57.7973 339.136 57.9309 339.65 58.036C339.704 58.044 339.756 58.0627 339.802 58.0912C339.849 58.1196 339.89 58.1572 339.921 58.2016C339.953 58.2461 339.975 58.2965 339.987 58.3498C339.999 58.4032 340 58.4583 339.99 58.512V58.8C339.995 58.9028 339.976 59.0053 339.934 59.0994C339.893 59.1935 339.829 59.2765 339.75 59.342C339.504 59.5921 339.212 59.7931 338.89 59.934C338.415 59.9905 337.934 59.9485 337.477 59.8109C337.019 59.6733 336.595 59.4428 336.23 59.134C335.76 58.8186 335.321 58.4586 334.92 58.059C334.521 57.6558 334.159 57.217 333.84 56.748C333.534 56.3831 333.305 55.9591 333.17 55.5024C333.034 55.0457 332.993 54.5661 333.05 54.093C333.191 53.7731 333.391 53.4827 333.64 53.237C333.703 53.1559 333.786 53.0919 333.88 53.0507C333.974 53.0095 334.078 52.9924 334.18 53.001H334.47C334.579 52.9859 334.69 53.0147 334.778 53.0813C334.867 53.1478 334.925 53.2467 334.94 53.356C335.09 53.948 335.2 54.376 335.35 54.856C335.41 55.056 335.34 55.104 335.18 55.224C335.08 55.301 335 55.357 334.92 55.416C334.874 55.4362 334.832 55.4659 334.798 55.5032C334.764 55.5405 334.738 55.5846 334.722 55.6326C334.706 55.6806 334.7 55.7315 334.705 55.7818C334.71 55.8322 334.725 55.881 334.75 55.925C335.005 56.4165 335.332 56.8674 335.72 57.263C336.115 57.6515 336.567 57.9775 337.06 58.23C337.104 58.2545 337.153 58.2696 337.203 58.2743C337.253 58.2791 337.304 58.2733 337.352 58.2574C337.4 58.2415 337.444 58.2159 337.482 58.1821C337.519 58.1482 337.549 58.107 337.57 58.061C337.63 57.98 337.68 57.904 337.76 57.8C337.772 57.764 337.792 57.731 337.818 57.7027C337.843 57.6745 337.874 57.6518 337.909 57.6359C337.943 57.6199 337.981 57.611 338.019 57.6099C338.057 57.6087 338.095 57.6152 338.13 57.629V57.636Z" fill="#333333"/>
<path fill-rule="evenodd" clip-rule="evenodd" d="M333.41 3.92297C333.78 4.52297 334.61 5.97001 334.73 6.23401C334.833 6.40901 334.865 6.61642 334.82 6.81433C334.776 7.01224 334.658 7.18585 334.49 7.29999C334.164 7.49778 333.859 7.72869 333.58 7.98901C333.44 8.25601 333.31 9.28902 334.85 10.822C336.39 12.355 337.63 12.665 337.95 12.322C338.27 11.979 338.46 11.6 338.66 11.4C338.806 11.2414 339.006 11.1431 339.221 11.1246C339.435 11.1061 339.649 11.1686 339.82 11.3C340.667 11.7478 341.486 12.2488 342.27 12.8C342.76 13.178 343.13 13.453 342.95 13.944C342.785 14.4354 342.512 14.8835 342.15 15.255C341.856 15.5476 341.493 15.7627 341.095 15.881C340.698 15.9993 340.277 16.0171 339.87 15.933C338.711 15.6485 337.612 15.1636 336.62 14.5C335.568 13.7471 334.59 12.8952 333.7 11.956C332.886 11.1564 332.141 10.2908 331.47 9.36798C330.811 8.26675 330.335 7.06626 330.06 5.81299C329.968 5.48214 329.959 5.13371 330.034 4.79858C330.109 4.46346 330.266 4.15205 330.49 3.89203C330.89 3.4771 331.4 3.18435 331.96 3.04797C332.35 2.94597 332.79 2.94597 333.41 3.92297ZM336.5 4.08197V3C338.224 3 339.877 3.68482 341.096 4.90381C342.315 6.1228 343 7.77609 343 9.5H341.92C341.919 8.06295 341.348 6.68502 340.332 5.66907C339.315 4.65311 337.937 4.08224 336.5 4.08197ZM340.83 9.49902H339.75C339.749 8.63731 339.407 7.8111 338.797 7.20178C338.188 6.59246 337.362 6.24982 336.5 6.24902V5.16602C337.069 5.16628 337.632 5.27857 338.158 5.49652C338.683 5.71447 339.161 6.03377 339.563 6.43622C339.965 6.83867 340.284 7.31636 340.501 7.84204C340.718 8.36772 340.83 8.93111 340.83 9.5V9.49902Z" fill="#333333"/>
<path fill-rule="evenodd" clip-rule="evenodd" d="M291.6 154.984C292.46 154.972 293.297 154.701 294 154.206V157.106C292.89 157.701 291.649 158.007 290.39 157.998C289.422 158.003 288.466 157.78 287.6 157.347C286.59 156.771 285.97 156.001 285.99 154.07V150.009H284V147.289C284.955 147.034 285.803 146.48 286.421 145.708C287.038 144.936 287.392 143.987 287.43 142.999H290V146.972H293V150.009H290V153.243C290 154.513 290.5 154.984 291.6 154.984Z" fill="#333333"/>
<path fill-rule="evenodd" clip-rule="evenodd" d="M299.98 107.732C299.967 107.766 299.947 107.797 299.921 107.823C299.896 107.849 299.866 107.87 299.832 107.885C299.799 107.899 299.763 107.907 299.726 107.907C299.69 107.907 299.654 107.901 299.62 107.887C299.613 107.885 299.607 107.883 299.6 107.881L299.14 107.693C297.365 106.973 295.943 105.585 295.18 103.828C294.89 103.828 294.61 103.722 294.394 103.529C294.177 103.337 294.038 103.072 294.003 102.784C293.968 102.496 294.04 102.206 294.205 101.967C294.37 101.729 294.616 101.559 294.898 101.49C295.179 101.421 295.476 101.457 295.733 101.592C295.989 101.727 296.188 101.952 296.29 102.223C296.392 102.494 296.392 102.793 296.289 103.064C296.186 103.335 295.987 103.559 295.73 103.693C296.451 105.284 297.759 106.534 299.38 107.183L299.84 107.371C299.904 107.403 299.953 107.458 299.979 107.525C300.005 107.591 300.005 107.665 299.98 107.732ZM297.62 104.604C297.578 104.663 297.516 104.704 297.445 104.719C297.375 104.735 297.301 104.724 297.238 104.689C297.175 104.654 297.127 104.597 297.103 104.528C297.08 104.46 297.082 104.386 297.11 104.319C297.121 104.287 297.138 104.258 297.16 104.232C297.315 104.041 297.44 103.827 297.53 103.598C297.782 102.974 297.776 102.277 297.516 101.657C297.256 101.037 296.761 100.545 296.14 100.288C295.832 100.163 295.502 100.101 295.169 100.104C294.836 100.107 294.508 100.176 294.202 100.307C293.896 100.438 293.619 100.628 293.387 100.866C293.155 101.105 292.973 101.387 292.85 101.696C292.6 102.321 292.608 103.019 292.87 103.639C293.132 104.258 293.628 104.75 294.25 105.006C294.555 105.13 294.881 105.192 295.21 105.19C295.254 105.188 295.299 105.194 295.34 105.21C295.4 105.239 295.449 105.288 295.479 105.348C295.508 105.408 295.517 105.476 295.503 105.542C295.489 105.608 295.454 105.667 295.403 105.71C295.351 105.753 295.287 105.778 295.22 105.78C294.812 105.784 294.408 105.706 294.03 105.552C293.264 105.236 292.653 104.63 292.331 103.866C292.009 103.102 292.002 102.242 292.31 101.473C292.46 101.093 292.683 100.746 292.968 100.452C293.253 100.159 293.593 99.9243 293.968 99.763C294.344 99.6017 294.748 99.5165 295.157 99.5122C295.565 99.5079 295.971 99.5846 296.35 99.738C297.119 100.051 297.732 100.656 298.056 101.42C298.38 102.184 298.389 103.046 298.08 103.816C297.962 104.097 297.807 104.36 297.62 104.6V104.604ZM285.68 106.123C285.141 106.124 284.606 106.045 284.09 105.889C283.967 105.857 283.859 105.781 283.788 105.675C283.716 105.57 283.686 105.442 283.702 105.315C283.718 105.189 283.779 105.073 283.874 104.988C283.97 104.904 284.093 104.857 284.22 104.856C284.281 104.857 284.342 104.868 284.4 104.889C284.815 105.014 285.247 105.078 285.68 105.077C286.574 105.084 287.45 104.824 288.196 104.333C288.943 103.841 289.526 103.138 289.873 102.314C290.22 101.49 290.314 100.582 290.143 99.704C289.973 98.8264 289.546 98.0192 288.916 97.3847C288.286 96.7503 287.482 96.3171 286.606 96.1403C285.729 95.9634 284.82 96.0509 283.994 96.3915C283.167 96.7321 282.46 97.3105 281.963 98.0534C281.466 98.7962 281.2 99.6701 281.2 100.564C281.201 101.15 281.313 101.73 281.53 102.274C281.57 102.345 281.591 102.425 281.59 102.506C281.589 102.646 281.532 102.779 281.433 102.877C281.334 102.975 281.2 103.03 281.06 103.03C280.955 103.03 280.852 102.997 280.766 102.935C280.68 102.874 280.615 102.788 280.58 102.688H280.57C280.3 102.012 280.161 101.291 280.16 100.563C280.168 99.473 280.498 98.4097 281.11 97.5072C281.721 96.6047 282.586 95.9035 283.595 95.4918C284.605 95.0802 285.713 94.9765 286.781 95.194C287.849 95.4115 288.829 95.9403 289.597 96.7139C290.365 97.4874 290.887 98.4711 291.097 99.5407C291.306 100.61 291.195 101.718 290.776 102.725C290.357 103.731 289.649 104.591 288.743 105.195C287.836 105.8 286.77 106.123 285.68 106.123ZM283.59 100.561C283.593 100.085 283.758 99.6242 284.059 99.2549C284.359 98.8856 284.777 98.63 285.242 98.5303C285.708 98.4306 286.194 98.4929 286.619 98.7068C287.044 98.9207 287.384 99.2734 287.581 99.7065C287.779 100.14 287.823 100.627 287.706 101.089C287.588 101.55 287.317 101.958 286.937 102.244C286.556 102.53 286.09 102.678 285.614 102.663C285.138 102.648 284.681 102.471 284.32 102.161C282.176 104.463 280.986 107.493 280.99 110.639V111.531C280.983 111.659 280.927 111.779 280.834 111.867C280.741 111.954 280.618 112.003 280.49 112.003C280.425 112.002 280.361 111.989 280.301 111.964C280.241 111.938 280.187 111.901 280.141 111.855C280.096 111.808 280.06 111.753 280.036 111.693C280.011 111.633 279.999 111.568 280 111.503V111.477V110.585C280.007 107.134 281.347 103.819 283.74 101.333C283.644 101.087 283.593 100.825 283.59 100.561Z" fill="#333333"/>
<path fill-rule="evenodd" clip-rule="evenodd" d="M280 52.733L286.92 53.711L283.41 49L292.26 53.889L294.88 50.956H296.2L299 52.289L295.85 53.267L295.5 55.667L291.47 59.667H289.19L288.41 61.889V65L285.52 64.023L288.84 57.889L280 52.733Z" fill="#333333"/>
<path fill-rule="evenodd" clip-rule="evenodd" d="M298.73 8.038H298.72C298.662 8.16945 298.567 8.28079 298.446 8.35788C298.325 8.43498 298.184 8.47435 298.04 8.47098C297.855 8.47914 297.674 8.41378 297.538 8.28916C297.401 8.16454 297.319 7.99083 297.31 7.806C297.31 7.74409 297.32 7.68257 297.34 7.624V7.61698C297.34 7.60998 297.35 7.60194 297.35 7.59494C297.474 7.26497 297.539 6.91552 297.54 6.56296C297.494 5.66289 297.094 4.81761 296.427 4.2114C295.76 3.60519 294.88 3.28728 293.98 3.327C293.766 3.32701 293.552 3.3444 293.34 3.379V3.366C293.25 3.39891 293.156 3.41582 293.06 3.41599C292.875 3.42415 292.695 3.35888 292.558 3.23447C292.421 3.11007 292.339 2.93664 292.33 2.75199C292.335 2.59111 292.398 2.43732 292.506 2.31797C292.614 2.19861 292.76 2.12137 292.92 2.09995C293.269 2.03207 293.624 1.9986 293.98 1.99997C295.25 1.94288 296.491 2.39105 297.432 3.2465C298.373 4.10194 298.936 5.29506 299 6.56498C298.997 7.06803 298.906 7.56669 298.73 8.038ZM294 5.50596C293.923 5.50572 293.846 5.51243 293.77 5.52598C293.714 5.54046 293.657 5.54751 293.6 5.54697C293.523 5.55381 293.446 5.54529 293.373 5.52195C293.3 5.4986 293.232 5.46093 293.173 5.41105C293.115 5.36116 293.067 5.30012 293.032 5.23148C292.998 5.16284 292.977 5.08795 292.972 5.01127C292.967 4.93458 292.977 4.85759 293.001 4.78483C293.026 4.71206 293.065 4.64498 293.116 4.5875C293.167 4.53002 293.229 4.48328 293.299 4.45005C293.368 4.41681 293.443 4.39775 293.52 4.39396C293.678 4.36534 293.839 4.35098 294 4.35099C294.62 4.32407 295.226 4.54365 295.685 4.96183C296.144 5.38 296.419 5.96281 296.45 6.58298C296.448 6.8293 296.404 7.07346 296.32 7.30497C296.269 7.42093 296.185 7.51928 296.078 7.58774C295.971 7.6562 295.847 7.69175 295.72 7.68998C295.559 7.69707 295.401 7.64028 295.281 7.5319C295.161 7.42351 295.089 7.2723 295.08 7.111C295.078 7.04217 295.092 6.97378 295.12 6.91098C295.16 6.80634 295.181 6.6951 295.18 6.58298C295.166 6.28381 295.034 6.00242 294.813 5.80051C294.591 5.59861 294.299 5.49265 294 5.50596ZM293.79 6.39097C293.999 6.58701 294.141 6.8442 294.195 7.12571C294.248 7.40721 294.212 7.69858 294.09 7.95798C293.92 8.46398 293.86 8.51299 293.94 8.60599C294.163 8.72901 294.402 8.82052 294.65 8.87796C295.255 9.07238 295.79 9.43945 296.19 9.934C296.394 10.223 296.522 10.5592 296.56 10.911C296.599 11.2628 296.547 11.6187 296.41 11.945C296.1 12.678 295.612 13.3221 294.99 13.8189C294.31 14.3401 293.567 14.7747 292.78 15.113C291.824 15.4794 290.832 15.7419 289.82 15.896C289.162 15.9634 288.501 15.9968 287.84 15.9959C287.021 15.9887 286.205 15.9091 285.4 15.758C284.446 15.5671 283.517 15.2699 282.63 14.872C281.732 14.4194 280.959 13.7528 280.38 12.931C280.17 12.5683 280.039 12.1656 279.994 11.749C279.949 11.3324 279.992 10.911 280.12 10.512C280.365 9.57719 280.828 8.71348 281.47 7.991C281.666 7.7401 281.876 7.50101 282.1 7.275C282.795 6.52628 283.578 5.86322 284.43 5.29996C285.195 4.79929 286.026 4.40911 286.9 4.14097C287.253 4.00878 287.632 3.95814 288.008 3.99277C288.384 4.0274 288.747 4.14642 289.07 4.34098C289.253 4.54613 289.381 4.79496 289.44 5.06357C289.5 5.33219 289.489 5.61157 289.41 5.87497C289.278 6.08846 289.225 6.34146 289.26 6.59C289.358 6.63037 289.464 6.64529 289.569 6.6334C289.674 6.6215 289.774 6.58313 289.86 6.52195C290.331 6.3362 290.821 6.19916 291.32 6.11295C292.148 5.8749 293.036 5.97489 293.79 6.39097ZM287.21 8.17197C284.07 8.47197 281.68 10.231 281.89 12.107C282.1 13.983 284.82 15.265 287.97 14.968C291.12 14.671 293.5 12.908 293.29 11.032C293.08 9.15596 290.36 7.87497 287.21 8.17197ZM287.82 14.237C286.18 14.6 284.58 13.861 284.23 12.586C283.88 11.311 284.93 9.98596 286.57 9.61796C288.21 9.24996 289.82 9.99296 290.17 11.269C290.52 12.545 289.46 13.873 287.82 14.237ZM287.28 12.0819C287.262 11.8559 287.174 11.6411 287.029 11.4673C286.883 11.2934 286.687 11.1691 286.468 11.1116C286.248 11.0541 286.017 11.0662 285.804 11.1463C285.592 11.2263 285.41 11.3704 285.284 11.5585C285.157 11.7466 285.092 11.9694 285.098 12.1961C285.103 12.4227 285.179 12.642 285.315 12.8236C285.451 13.0051 285.64 13.14 285.856 13.2094C286.072 13.2788 286.304 13.2793 286.52 13.211C286.769 13.1595 286.988 13.0125 287.13 12.8015C287.272 12.5905 287.326 12.3321 287.28 12.0819ZM288.2 11.366C288.166 11.2748 288.098 11.2003 288.01 11.1584C287.923 11.1166 287.822 11.1107 287.73 11.142C287.635 11.1616 287.551 11.2169 287.495 11.2964C287.439 11.376 287.416 11.4738 287.43 11.57C287.464 11.6612 287.532 11.7356 287.619 11.7773C287.707 11.819 287.808 11.8246 287.9 11.793C287.948 11.7853 287.994 11.768 288.035 11.7422C288.076 11.7164 288.112 11.6826 288.14 11.6428C288.168 11.603 288.188 11.558 288.198 11.5105C288.208 11.4629 288.209 11.4138 288.2 11.366Z" fill="#333333"/>
<path fill-rule="evenodd" clip-rule="evenodd" d="M251.67 153.768C250.596 153.384 249.666 152.678 249.009 151.745C248.352 150.813 248 149.7 248 148.559V144.09C249.031 144.265 249.999 144.707 250.807 145.371C251.615 146.036 252.235 146.9 252.606 147.878C252.977 148.856 253.086 149.914 252.922 150.948C252.758 151.981 252.326 152.953 251.67 153.768ZM247 156C245.922 156.003 244.864 155.711 243.94 155.156C245.199 154.503 246.249 153.509 246.97 152.288C247.66 153.528 248.686 154.549 249.93 155.233C249.036 155.737 248.026 156.001 247 156ZM242.9 153.418C243.679 152.325 244.064 151 243.991 149.659C243.919 148.319 243.393 147.043 242.5 146.041C243.408 145.008 244.644 144.32 246 144.093V148.5C245.998 149.528 245.707 150.535 245.158 151.405C244.61 152.275 243.827 152.972 242.9 153.417V153.418ZM242.1 153.418C241.173 152.973 240.39 152.276 239.842 151.406C239.293 150.536 239.001 149.528 239 148.5V144.093C240.355 144.322 241.591 145.01 242.5 146.041C241.607 147.043 241.082 148.319 241.009 149.659C240.936 150.999 241.321 152.324 242.1 153.417V153.418ZM238 156C236.974 156.001 235.964 155.737 235.07 155.233C236.314 154.549 237.34 153.528 238.03 152.288C238.751 153.509 239.801 154.503 241.06 155.156C240.136 155.711 239.078 156.003 238 156ZM233.33 153.769C232.674 152.954 232.242 151.982 232.078 150.949C231.914 149.915 232.023 148.857 232.394 147.879C232.764 146.901 233.385 146.037 234.193 145.372C235.001 144.708 235.969 144.266 237 144.091V148.56C237 149.701 236.647 150.813 235.99 151.745C235.333 152.678 234.404 153.384 233.33 153.768V153.769Z" fill="#333333"/>
<path fill-rule="evenodd" clip-rule="evenodd" d="M251.9 101.8L247.43 105.688L247.59 106.513H247.31C244.13 106.519 241.37 106.224 241.37 106.224L247.46 102.143C244.32 101.427 239.66 101.848 237.5 102.108C236.77 102.196 236.33 102.265 236.33 102.265L236.45 102.343C236.45 102.343 237.88 102.343 238.28 102.36C242.17 102.569 244.09 102.792 244.09 102.792L238.06 106.94C242.15 107.75 247.26 106.94 249.23 106.558C249.218 106.565 249.204 106.571 249.19 106.574C248.83 106.712 247.98 107.054 247.83 107.094C247.784 107.112 247.743 107.14 247.71 107.176L248.54 111.582C248.548 111.607 248.552 111.633 248.55 111.659C248.548 111.705 248.538 111.749 248.519 111.791C248.5 111.832 248.473 111.87 248.439 111.901C248.406 111.932 248.367 111.956 248.324 111.972C248.281 111.987 248.236 111.995 248.19 111.993C248.128 111.991 248.066 111.976 248.01 111.949L242.5 108.949L237.02 111.926C236.958 111.969 236.885 111.992 236.81 111.992C236.764 111.994 236.719 111.986 236.676 111.971C236.633 111.955 236.594 111.931 236.561 111.9C236.527 111.869 236.5 111.831 236.481 111.79C236.462 111.748 236.452 111.704 236.45 111.658V111.614L237.65 105.682L233.12 101.808C233.113 101.804 233.106 101.799 233.1 101.794C233.069 101.765 233.044 101.73 233.027 101.691C233.01 101.652 233.001 101.61 233 101.567C233.003 101.482 233.037 101.401 233.096 101.34C233.155 101.278 233.235 101.241 233.32 101.236H233.33L239.33 100.642L242.17 95.21C242.169 95.2059 242.17 95.2017 242.172 95.198C242.174 95.1943 242.177 95.1912 242.18 95.189V95.179C242.214 95.1247 242.261 95.0798 242.317 95.0487C242.373 95.0176 242.436 95.0013 242.5 95.0013C242.564 95.0013 242.627 95.0176 242.683 95.0487C242.739 95.0798 242.786 95.1247 242.82 95.179L245.67 100.642L251.68 101.236C251.765 101.242 251.844 101.279 251.903 101.34C251.962 101.401 251.997 101.481 252 101.566C252 101.61 251.991 101.653 251.974 101.693C251.956 101.733 251.931 101.77 251.9 101.8Z" fill="#333333"/>
<path fill-rule="evenodd" clip-rule="evenodd" d="M242.5 65C240.246 65 238.084 64.1045 236.49 62.5104C234.896 60.9164 234 58.7543 234 56.5V50C234 49.7348 234.105 49.4804 234.293 49.2929C234.48 49.1054 234.735 49 235 49H250C250.265 49 250.52 49.1054 250.707 49.2929C250.895 49.4804 251 49.7348 251 50V56.5C251 58.7543 250.104 60.9164 248.51 62.5104C246.916 64.1045 244.754 65 242.5 65ZM247.68 54.249C247.588 54.1561 247.478 54.0823 247.357 54.032C247.236 53.9817 247.106 53.9557 246.975 53.9557C246.844 53.9557 246.714 53.9817 246.593 54.032C246.472 54.0823 246.362 54.1561 246.27 54.249L242.5 57.676L238.7 54.293C238.609 54.1928 238.498 54.1121 238.375 54.0559C238.252 53.9997 238.118 53.9692 237.983 53.9661C237.848 53.963 237.713 53.9874 237.587 54.0379C237.462 54.0884 237.347 54.164 237.252 54.2599C237.156 54.3559 237.081 54.4703 237.031 54.5961C236.981 54.722 236.957 54.8567 236.96 54.9921C236.964 55.1275 236.995 55.2609 237.052 55.3839C237.108 55.507 237.189 55.6172 237.29 55.708L241.8 59.727C241.989 59.9143 242.244 60.0195 242.51 60.0195C242.776 60.0195 243.031 59.9143 243.22 59.727L247.68 55.663C247.773 55.5702 247.847 55.4598 247.897 55.3384C247.947 55.217 247.973 55.0869 247.973 54.9555C247.973 54.8241 247.947 54.694 247.897 54.5726C247.847 54.4512 247.773 54.3409 247.68 54.248V54.249Z" fill="#333333"/>
<path fill-rule="evenodd" clip-rule="evenodd" d="M13.9539 98.639L11.743 107.051C11.6198 107.459 11.3766 107.82 11.045 108.088C10.7133 108.355 10.3087 108.517 9.88394 108.551L12.162 100.051C12.2068 99.8749 12.1862 99.6885 12.104 99.5265C12.0218 99.3644 11.8836 99.2378 11.715 99.17L6.86795 97.735C6.76602 97.6934 6.65205 97.6924 6.54941 97.7322C6.44677 97.772 6.36322 97.8495 6.31595 97.949L10.716 99.657C10.8754 99.7217 11.0061 99.8419 11.084 99.9953C11.1619 100.149 11.1818 100.325 11.14 100.492L8.44998 110.656C8.43455 110.716 8.40641 110.772 8.36746 110.82C8.32852 110.868 8.27968 110.907 8.22427 110.934C8.16887 110.962 8.10818 110.977 8.04636 110.979C7.98453 110.981 7.92305 110.97 7.866 110.946L1.31094 108.271C1.22747 108.235 1.15543 108.177 1.10257 108.103C1.04971 108.029 1.01803 107.942 1.01096 107.851C0.976097 107.797 0.952648 107.737 0.941986 107.673C0.931325 107.61 0.933664 107.545 0.948944 107.483L1.31699 106H4.99997L4.98599 108.224L9.21994 103.99L4.98599 99.817L4.99997 102H2.29996L3.20694 98.306L3.27097 98.038C3.31243 97.7437 3.39385 97.4564 3.51297 97.184C3.51597 97.1791 3.51932 97.1744 3.52298 97.17C3.56885 97.1042 3.63131 97.0516 3.70401 97.0178C3.77672 96.9839 3.85709 96.9698 3.93698 96.977H12.455C12.6759 96.9351 12.9038 96.9509 13.1169 97.0226C13.33 97.0944 13.521 97.2198 13.6715 97.3867C13.8221 97.5537 13.9272 97.7566 13.9767 97.9759C14.0261 98.1952 14.0183 98.4235 13.9539 98.639Z" fill="#333333"/>
<path fill-rule="evenodd" clip-rule="evenodd" d="M154.39 63.018L149.38 62.018L148.52 61.158L148.35 60.994L145 57.638L143.82 56.458L141.13 53.773C140.67 53.317 141.35 51.9 142.64 50.61C143.93 49.32 145.35 48.644 145.8 49.1L148.49 51.785L148.69 51.985L154.05 57.347L155.06 62.347L154.39 63.018ZM152.07 58.675C151.818 58.8747 151.581 59.0923 151.36 59.326C151.127 59.5407 150.913 59.7749 150.72 60.026L152.35 60.295L152.07 58.675ZM145.33 51.275C144.96 50.904 144.54 51.384 143.98 51.94C143.42 52.496 142.94 52.918 143.31 53.289L144.41 54.381C144.685 53.9935 144.993 53.6302 145.33 53.295C145.665 52.9549 146.03 52.6451 146.42 52.369L145.33 51.275ZM148.34 54.29L148.2 54.149L148.01 53.96C147.64 53.59 147.22 54.07 146.67 54.626C146.12 55.182 145.63 55.603 146 55.974L146.16 56.132L149.11 59.08C149.382 58.6901 149.69 58.3268 150.03 57.995C150.366 57.6546 150.73 57.3441 151.12 57.067L148.34 54.29Z" fill="#333333"/>
<path fill-rule="evenodd" clip-rule="evenodd" d="M98 101H95V110H98V101ZM102 101H99V110H102V105C102.14 104.711 102.355 104.464 102.624 104.287C102.892 104.11 103.203 104.009 103.524 103.994C103.733 103.989 103.941 104.029 104.133 104.113C104.325 104.197 104.496 104.321 104.635 104.478C104.773 104.635 104.876 104.82 104.935 105.021C104.994 105.222 105.009 105.433 104.978 105.64L105 110H108V105C108 102.873 107.378 101 104.737 101C104.201 100.997 103.673 101.121 103.195 101.362C102.716 101.604 102.302 101.955 101.987 102.388L102 101ZM96.5 97C96.7967 97 97.0867 97.088 97.3334 97.2528C97.58 97.4176 97.7723 97.6519 97.8858 97.926C97.9993 98.2001 98.0291 98.5017 97.9712 98.7927C97.9133 99.0836 97.7704 99.3509 97.5607 99.5607C97.3509 99.7704 97.0836 99.9133 96.7927 99.9712C96.5017 100.029 96.2001 99.9993 95.926 99.8858C95.6519 99.7723 95.4176 99.58 95.2528 99.3334C95.088 99.0867 95 98.7967 95 98.5C95 98.1022 95.158 97.7206 95.4393 97.4393C95.7206 97.158 96.1022 97 96.5 97Z" fill="#333333"/>
<path fill-rule="evenodd" clip-rule="evenodd" d="M243.29 2.35798C244.399 2.35082 245.507 2.40694 246.61 2.52601C247.96 2.70801 248.49 3.02603 248.66 4.26203C248.892 6.32607 249.003 8.40199 248.99 10.479C248.93 12.179 248.37 15.839 247.83 16.696C247.659 17.0703 247.387 17.3894 247.044 17.6171C246.701 17.8449 246.301 17.9723 245.89 17.985C245.025 18.026 244.158 17.9882 243.3 17.872C242.93 17.8133 242.594 17.621 242.357 17.3315C242.119 17.042 241.996 16.6754 242.01 16.301C241.96 15.185 241.95 14.812 242.51 14.34C242.901 14.093 243.358 13.9735 243.82 13.998C244.23 13.975 245.02 13.975 245.02 13.975C244.92 14.1172 244.859 14.2837 244.845 14.4571C244.831 14.6305 244.864 14.8045 244.94 14.961C244.94 14.961 244.02 15.007 243.84 15.03C243.763 15.0422 243.688 15.0695 243.622 15.1106C243.555 15.1517 243.497 15.2056 243.452 15.2693C243.406 15.333 243.374 15.4051 243.356 15.4815C243.339 15.5578 243.337 15.6368 243.35 15.714C243.39 16.193 243.62 16.278 244.11 16.278C244.6 16.278 245.37 16.256 245.62 16.233C245.809 16.1952 245.98 16.0928 246.102 15.9432C246.224 15.7936 246.291 15.6062 246.29 15.413C246.325 14.754 246.258 14.0934 246.09 13.455C245.989 13.1678 245.794 12.9233 245.536 12.7617C245.278 12.6002 244.973 12.5311 244.67 12.566C243.936 12.5888 243.212 12.3929 242.59 12.003C242.261 11.4605 242.088 10.8376 242.09 10.203C242.09 10.203 241.95 11.444 241.8 12.092C241.65 12.74 241.5 13.258 240.58 13.129C239.4 12.9782 238.231 12.7513 237.08 12.45C236.8 12.3592 236.547 12.1975 236.348 11.9807C236.148 11.7638 236.007 11.499 235.94 11.212C235.608 10.1931 235.357 9.14955 235.19 8.09101C235.037 7.45946 234.976 6.80897 235.01 6.15998C235.014 5.9987 235.049 5.83982 235.116 5.69276C235.182 5.54569 235.277 5.41349 235.396 5.30409C235.514 5.19468 235.654 5.11029 235.806 5.05598C235.958 5.00167 236.119 4.97854 236.28 4.98799C237.19 4.95199 237.61 4.96998 237.91 4.96998C238.039 5.00989 238.176 5.01894 238.31 4.99629C238.443 4.97364 238.57 4.91996 238.679 4.83961C238.787 4.75926 238.876 4.65445 238.937 4.53364C238.998 4.41283 239.03 4.27936 239.03 4.14399C239.02 3.23699 239 3.117 238.99 2.792C238.963 2.56609 238.985 2.33703 239.054 2.12025C239.123 1.90347 239.238 1.70398 239.39 1.53517C239.543 1.36636 239.73 1.23213 239.938 1.14155C240.147 1.05097 240.373 1.00614 240.6 1.01002C242.15 1.00002 242.59 1.13901 242.92 1.56501C243.115 1.78965 243.243 2.06431 243.29 2.35798ZM235.2 4.24299L238.23 1.43702C238.116 1.6091 238.044 1.80577 238.02 2.011C237.99 2.333 238.01 3.55804 238 3.68904C237.99 3.82004 238 3.98102 237.78 3.98902C237.56 3.99702 236.11 3.97902 235.91 3.98902C235.655 4.01083 235.411 4.09832 235.2 4.24299ZM245.02 9.05403C245.01 8.91294 245.028 8.7712 245.073 8.63703C245.117 8.50287 245.188 8.37891 245.281 8.27229C245.374 8.16567 245.487 8.07851 245.614 8.01582C245.741 7.95312 245.879 7.91613 246.02 7.90699C246.175 7.91934 246.325 7.96304 246.462 8.03541C246.599 8.10778 246.72 8.20727 246.817 8.32789C246.915 8.44851 246.986 8.5877 247.028 8.73695C247.07 8.8862 247.081 9.04239 247.06 9.19599C246.401 8.98825 245.702 8.93962 245.02 9.05403Z" fill="#333333"/>
<path fill-rule="evenodd" clip-rule="evenodd" d="M197.37 146.178C198.648 146.384 199.873 146.844 200.97 147.531C201.233 147.311 201.538 147.148 201.867 147.051C202.196 146.954 202.541 146.926 202.881 146.968C203.221 147.01 203.549 147.121 203.844 147.296C204.14 147.47 204.396 147.703 204.597 147.98C204.799 148.258 204.941 148.574 205.015 148.908C205.089 149.243 205.093 149.589 205.028 149.926C204.963 150.262 204.829 150.581 204.635 150.864C204.441 151.147 204.191 151.386 203.9 151.568C203.964 151.875 203.997 152.187 204 152.5C204 156.09 200.19 159 195.5 159C190.81 159 187 156.091 187 152.5C187.003 152.187 187.036 151.875 187.1 151.568C186.658 151.268 186.324 150.834 186.146 150.33C185.969 149.826 185.958 149.278 186.115 148.767C186.271 148.257 186.587 147.809 187.016 147.491C187.446 147.173 187.966 147.001 188.5 147C189.052 147.001 189.588 147.188 190.02 147.531C191.633 146.532 193.493 146.004 195.39 146.007L196.03 142.871V142.855C196.03 142.845 196.04 142.837 196.04 142.827L196.06 142.744C196.068 142.709 196.082 142.675 196.1 142.644C196.126 142.566 196.163 142.493 196.21 142.425C196.242 142.379 196.279 142.337 196.32 142.299C196.365 142.25 196.415 142.205 196.47 142.166C196.525 142.129 196.586 142.1 196.65 142.08C196.701 142.054 196.755 142.034 196.81 142.02C196.879 142.009 196.95 142.005 197.02 142.008C197.066 142.002 197.113 141.999 197.16 141.999L200.51 142.67C200.802 142.34 201.194 142.116 201.627 142.032C202.059 141.948 202.507 142.009 202.901 142.206C203.295 142.403 203.613 142.724 203.806 143.12C203.999 143.516 204.056 143.964 203.967 144.396C203.879 144.827 203.651 145.218 203.318 145.506C202.985 145.795 202.567 145.966 202.127 145.992C201.687 146.018 201.251 145.898 200.887 145.651C200.522 145.404 200.249 145.044 200.11 144.626L197.78 144.161L197.37 146.178ZM200 151.5C200 151.203 199.912 150.913 199.747 150.667C199.582 150.42 199.348 150.228 199.074 150.114C198.8 150.001 198.498 149.971 198.207 150.029C197.916 150.087 197.649 150.23 197.439 150.439C197.23 150.649 197.087 150.916 197.029 151.207C196.971 151.498 197.001 151.8 197.114 152.074C197.228 152.348 197.42 152.582 197.667 152.747C197.913 152.912 198.203 153 198.5 153C198.898 153 199.279 152.842 199.561 152.561C199.842 152.279 200 151.898 200 151.5ZM192.5 150C192.203 150 191.913 150.088 191.667 150.253C191.42 150.418 191.228 150.652 191.114 150.926C191.001 151.2 190.971 151.502 191.029 151.793C191.087 152.084 191.23 152.351 191.439 152.561C191.649 152.77 191.916 152.913 192.207 152.971C192.498 153.029 192.8 152.999 193.074 152.886C193.348 152.772 193.582 152.58 193.747 152.333C193.912 152.087 194 151.797 194 151.5C194 151.102 193.842 150.721 193.561 150.439C193.279 150.158 192.898 150 192.5 150ZM192.21 155.191L191.66 156.003C192.834 156.657 194.156 157 195.5 157C196.844 157 198.166 156.657 199.34 156.003L198.79 155.191C197.775 155.722 196.646 155.999 195.5 155.999C194.354 155.999 193.225 155.722 192.21 155.191Z" fill="#333333"/>
<path fill-rule="evenodd" clip-rule="evenodd" d="M204 111H200V109H203V108H200V100H205V111H204ZM202 102V106H203V102H202ZM197 111H194V109H197V108H194V100H199V111H197ZM197 102H196V106H197V102ZM191 100H193V108H191V100ZM191 97H193V99H191V97ZM188 108H185V100H188V97H190V108H188ZM188 102H187V106H188V102Z" fill="#333333"/>
<path fill-rule="evenodd" clip-rule="evenodd" d="M196 49H204V57H196V49ZM188 57H196V65H188V57Z" fill="#333333"/>
<path fill-rule="evenodd" clip-rule="evenodd" d="M60.965 102.863L60.8539 102.618L60.668 102.463C60.424 102.263 59.431 102.477 59.098 102.163C58.8643 101.805 58.745 101.385 58.7559 100.958C58.7406 100.433 58.612 99.9183 58.379 99.448C58.0575 98.8244 57.5987 98.282 57.0371 97.8616C56.4755 97.4412 55.8258 97.1538 55.137 97.021H52.1999C51.0542 97.0581 49.9697 97.5468 49.1829 98.3804C48.396 99.2141 47.9708 100.325 47.9999 101.471V105.548C47.9719 106.693 48.3978 107.802 49.1846 108.635C49.9714 109.467 51.0553 109.954 52.1999 109.99H57.0229C59.3319 109.99 60.964 107.99 60.978 105.548L61.004 103.066L60.965 102.863ZM51.8289 100.011H55.145C55.3805 100.048 55.5952 100.168 55.7502 100.349C55.9053 100.53 55.9905 100.761 55.9905 100.999C55.9905 101.237 55.9053 101.468 55.7502 101.649C55.5952 101.83 55.3805 101.95 55.145 101.987H51.8289C51.5933 101.95 51.3787 101.83 51.2236 101.649C51.0686 101.468 50.9834 101.237 50.9834 100.999C50.9834 100.761 51.0686 100.53 51.2236 100.349C51.3787 100.168 51.5933 100.048 51.8289 100.011ZM57.181 107H51.8209C51.5924 106.95 51.3878 106.823 51.2412 106.64C51.0946 106.458 51.0146 106.231 51.0146 105.997C51.0146 105.763 51.0946 105.536 51.2412 105.354C51.3878 105.171 51.5924 105.044 51.8209 104.994H57.181C57.4088 105.045 57.6124 105.172 57.7582 105.355C57.9041 105.537 57.9836 105.764 57.9836 105.997C57.9836 106.23 57.9041 106.457 57.7582 106.639C57.6124 106.822 57.4088 106.949 57.181 107Z" fill="#333333"/>
<path fill-rule="evenodd" clip-rule="evenodd" d="M7.25594 54.4C7.25594 54.4 7.49298 51.052 9.82698 51.023C11.727 50.998 12.091 51.861 12.091 51.861C12.6646 51.6858 13.195 51.3922 13.648 50.999C13.6071 51.558 13.3832 52.088 13.0109 52.507C13.3724 52.5046 13.7219 52.3778 14.0009 52.148C13.9277 52.4179 13.7971 52.6688 13.6179 52.8835C13.4388 53.0982 13.2154 53.2717 12.963 53.392C13.082 55.4853 12.5207 57.561 11.3629 59.309C9.66293 61.777 6.57096 61.962 4.87496 61.983C3.51764 61.9027 2.19587 61.5175 1.00795 60.856C1.00795 60.856 3.58093 60.887 4.73293 60.046C3.82086 59.4224 2.96736 58.7172 2.18294 57.939C2.49371 57.9649 2.80662 57.9334 3.10598 57.846C2.2826 56.975 1.57659 56 1.00594 54.946C1.32449 55.0094 1.65057 55.0262 1.97396 54.996C1.97396 54.996 0.473979 52.56 1.18398 50.981C1.18398 50.985 3.71894 54.187 7.25594 54.4Z" fill="#333333"/>
<path fill-rule="evenodd" clip-rule="evenodd" d="M192.07 13.04C192.31 11.798 192.82 9.62205 192.93 9.41305C193.003 9.27446 193.046 9.12213 193.056 8.9659C193.067 8.80968 193.044 8.65298 192.99 8.506C192.741 7.69843 192.741 6.83458 192.99 6.027C193.054 5.79761 193.167 5.5846 193.32 5.40218C193.473 5.21977 193.664 5.07217 193.879 4.9692C194.094 4.86622 194.328 4.81028 194.566 4.80507C194.804 4.79987 195.041 4.84555 195.26 4.93905C196.35 5.40005 195.75 7.112 195.62 7.639C195.324 8.45689 195.132 9.30901 195.05 10.175C195.058 10.5589 195.217 10.9243 195.492 11.1923C195.767 11.4602 196.136 11.6092 196.52 11.607C197.028 11.5677 197.515 11.388 197.926 11.0877C198.338 10.7875 198.658 10.3786 198.85 9.907C199.349 8.86931 199.609 7.73263 199.61 6.58102C199.658 5.6633 199.389 4.75696 198.85 4.01302C198.43 3.57004 197.922 3.21951 197.359 2.98379C196.796 2.74807 196.19 2.63232 195.58 2.644C194.421 2.62511 193.296 3.04232 192.43 3.81301C191.511 4.63386 190.95 5.78307 190.87 7.01302C190.821 7.63865 190.945 8.2657 191.23 8.82503C191.455 9.06938 191.607 9.37126 191.67 9.69704C191.63 9.91104 191.45 10.537 191.42 10.652C191.39 10.767 191.13 10.998 190.72 10.734C190.024 10.3045 189.506 9.639 189.26 8.85903C188.895 7.67597 188.906 6.40887 189.29 5.23202C189.771 4.0569 190.563 3.03477 191.58 2.27505C192.865 1.3821 194.406 0.930131 195.97 0.987021C196.805 0.967619 197.634 1.12269 198.406 1.44228C199.177 1.76187 199.873 2.23897 200.45 2.84304C200.979 3.39845 201.389 4.05662 201.654 4.77682C201.919 5.49701 202.033 6.26392 201.99 7.03005C202.009 8.77926 201.37 10.4717 200.2 11.772C199.771 12.2593 199.239 12.6451 198.642 12.9014C198.045 13.1578 197.399 13.2782 196.75 13.254C196.313 13.2393 195.883 13.1352 195.488 12.9483C195.092 12.7613 194.739 12.4955 194.45 12.167C194.45 12.167 193.89 14.143 193.71 14.752C193.443 15.5864 193.08 16.3873 192.63 17.139C192.426 17.4871 192.142 17.7808 191.8 17.995C191.656 16.9144 191.639 15.8206 191.75 14.736C191.81 14.1628 191.917 13.5955 192.07 13.04Z" fill="#333333"/>
<path fill-rule="evenodd" clip-rule="evenodd" d="M104.781 49.976H102.494C101.909 49.9453 101.325 50.0356 100.776 50.2411C100.228 50.4467 99.7284 50.7631 99.308 51.1706C98.8876 51.5781 98.5559 52.0679 98.3334 52.6095C98.1109 53.151 98.0025 53.7326 98.015 54.318C97.9934 55.1171 98.232 55.9016 98.695 56.5533C99.158 57.2049 99.8203 57.6885 100.582 57.931L98.028 62.022C97.9653 62.1783 97.9347 62.3456 97.9381 62.514C97.9416 62.6824 97.9789 62.8484 98.048 63.002H99.425C99.4728 63.0092 99.5216 63.0014 99.5647 62.9797C99.6079 62.9581 99.6433 62.9235 99.666 62.881L102.454 58.254H102.985V62.881C102.99 62.9146 103.007 62.9454 103.032 62.9676C103.058 62.9899 103.091 63.0021 103.125 63.002H104.841C104.861 63.0071 104.882 63.0072 104.903 63.0024C104.923 62.9975 104.942 62.9879 104.958 62.9743C104.973 62.9607 104.986 62.9434 104.993 62.9241C105.001 62.9047 105.004 62.8837 105.002 62.863V50.15C105.002 50.1229 104.996 50.096 104.984 50.0716C104.973 50.0471 104.955 50.0256 104.934 50.0088C104.913 49.992 104.888 49.9804 104.861 49.9747C104.835 49.969 104.807 49.9694 104.781 49.976ZM102.981 56.942H102.611C102.246 56.966 101.879 56.9084 101.539 56.7734C101.198 56.6383 100.892 56.4292 100.642 56.1611C100.393 55.8931 100.206 55.5728 100.095 55.2236C99.9846 54.8743 99.9531 54.5049 100.003 54.142C100.003 51.971 101.203 51.206 102.43 51.206H102.981V56.939V56.942Z" fill="#333333"/>
<path fill-rule="evenodd" clip-rule="evenodd" d="M63.9999 152H61.9999V154H59.9999V152H57.9999V150H59.9999V148H61.9999V150H63.9999V152ZM51.4999 156C50.5581 156.003 49.6311 155.765 48.808 155.307C47.9848 154.849 47.2929 154.188 46.7986 153.386C46.3044 152.584 46.0243 151.669 45.9852 150.728C45.9461 149.787 46.1494 148.852 46.5755 148.012C47.0016 147.172 47.6362 146.455 48.4186 145.931C49.201 145.407 50.105 145.092 51.0439 145.017C51.9828 144.943 52.9251 145.11 53.7807 145.504C54.6362 145.898 55.3763 146.505 55.9299 147.267L54.2299 148.333C53.8619 147.87 53.3823 147.507 52.8359 147.28C52.2896 147.053 51.6944 146.968 51.1064 147.034C50.5183 147.099 49.9565 147.313 49.4737 147.655C48.9909 147.997 48.6029 148.457 48.346 148.99C48.0892 149.523 47.972 150.112 48.0054 150.703C48.0388 151.294 48.2217 151.867 48.5369 152.367C48.8521 152.868 49.2893 153.281 49.8076 153.566C50.3259 153.852 50.9082 154.001 51.4999 154C52.1813 154.001 52.8498 153.815 53.4329 153.462C54.0159 153.11 54.4912 152.604 54.8069 152H51.9999V150H56.9999V152C56.6251 153.163 55.8905 154.178 54.902 154.897C53.9135 155.616 52.7222 156.002 51.4999 156Z" fill="#333333"/>
<path fill-rule="evenodd" clip-rule="evenodd" d="M145.5 4C145.797 4 146.087 4.08799 146.333 4.25281C146.58 4.41763 146.772 4.65188 146.886 4.92596C146.999 5.20005 147.029 5.50169 146.971 5.79266C146.913 6.08364 146.77 6.35089 146.561 6.56067C146.351 6.77045 146.084 6.91331 145.793 6.97119C145.502 7.02907 145.2 6.99933 144.926 6.8858C144.652 6.77227 144.418 6.58005 144.253 6.33337C144.088 6.0867 144 5.79667 144 5.5C144 5.10218 144.158 4.72064 144.439 4.43933C144.721 4.15803 145.102 4 145.5 4ZM151.5 4C151.797 4 152.087 4.08799 152.333 4.25281C152.58 4.41763 152.772 4.65188 152.886 4.92596C152.999 5.20005 153.029 5.50169 152.971 5.79266C152.913 6.08364 152.77 6.35089 152.561 6.56067C152.351 6.77045 152.084 6.91331 151.793 6.97119C151.502 7.02907 151.2 6.99933 150.926 6.8858C150.652 6.77227 150.418 6.58005 150.253 6.33337C150.088 6.0867 150 5.79667 150 5.5C150 5.10218 150.158 4.72064 150.439 4.43933C150.721 4.15803 151.102 4 151.5 4ZM155.5 14.874C155.27 15.0051 154.997 15.0407 154.741 14.9732C154.485 14.9057 154.266 14.7405 154.13 14.513L153.3 13.241C151.96 14.3752 150.261 14.9976 148.505 14.9976C146.749 14.9976 145.05 14.3752 143.71 13.241L142.87 14.535C142.804 14.6492 142.717 14.7495 142.612 14.8299C142.508 14.9103 142.389 14.9694 142.262 15.0037C142.134 15.0381 142.002 15.047 141.871 15.0301C141.74 15.0131 141.614 14.9707 141.5 14.905C141.386 14.8394 141.286 14.7518 141.205 14.6475C141.125 14.5431 141.066 14.4238 141.031 14.2966C140.997 14.1694 140.988 14.0367 141.005 13.906C141.022 13.7753 141.064 13.6492 141.13 13.535L143.13 10.454C143.263 10.2232 143.481 10.0547 143.738 9.98529C143.995 9.9159 144.269 9.95138 144.5 10.084C144.731 10.2166 144.899 10.4355 144.969 10.6924C145.038 10.9493 145.003 11.2232 144.87 11.454L144.81 11.546C145.813 12.4774 147.131 12.995 148.5 12.995C149.869 12.995 151.187 12.4774 152.19 11.546L152.13 11.462C152.065 11.3493 152.024 11.225 152.007 11.0961C151.991 10.9672 152 10.8363 152.034 10.711C152.069 10.5857 152.128 10.4684 152.208 10.366C152.288 10.2635 152.387 10.1779 152.5 10.114C152.73 9.98292 153.003 9.94728 153.259 10.0148C153.515 10.0823 153.734 10.2475 153.87 10.475L155.87 13.518C155.936 13.6311 155.978 13.7561 155.995 13.8858C156.012 14.0155 156.004 14.1473 155.969 14.2735C155.935 14.3997 155.875 14.5178 155.795 14.6209C155.714 14.724 155.614 14.81 155.5 14.874Z" fill="#333333"/>
<path fill-rule="evenodd" clip-rule="evenodd" d="M54.5 3.00002C55.1914 3.00358 55.8663 3.21185 56.4395 3.59859C57.0127 3.98533 57.4585 4.53321 57.7207 5.17306C57.9828 5.8129 58.0496 6.51606 57.9125 7.19381C57.7754 7.87155 57.4407 8.49348 56.9505 8.98116C56.4603 9.46885 55.8366 9.80045 55.1582 9.93404C54.4797 10.0676 53.777 9.99726 53.1385 9.73183C52.5 9.4664 51.9544 9.01782 51.5706 8.44265C51.1868 7.86747 50.982 7.19149 50.982 6.50002C50.9828 6.0391 51.0744 5.58283 51.2517 5.15737C51.429 4.73191 51.6885 4.34561 52.0152 4.02053C52.342 3.69544 52.7296 3.43801 53.156 3.2629C53.5823 3.08779 54.0391 2.99844 54.5 3.00002ZM54.508 4.95601C54.808 4.95898 55.1004 5.05065 55.3484 5.2195C55.5964 5.38836 55.7889 5.62682 55.9016 5.90487C56.0144 6.18292 56.0423 6.48812 55.9818 6.782C55.9214 7.07589 55.7754 7.34532 55.5621 7.55636C55.3488 7.76739 55.0779 7.91058 54.7834 7.96792C54.4889 8.02525 54.1841 7.99419 53.9072 7.87856C53.6303 7.76293 53.3939 7.56796 53.2276 7.3182C53.0614 7.06844 52.9728 6.77502 52.973 6.475C52.9746 6.07018 53.1368 5.68257 53.4241 5.39736C53.7114 5.11214 54.1002 4.95267 54.505 4.954L54.508 4.95601ZM54.5 11.016C55.1706 11.0111 55.8355 10.8903 56.465 10.659C56.8159 10.4319 57.19 10.2428 57.581 10.095C57.801 10.103 58.164 10.468 58.102 11.412C58.067 11.95 57.0839 12.173 56.7379 12.379C56.512 12.5019 56.2669 12.5854 56.013 12.626C56.013 12.626 56.86 13.532 57.076 13.755C57.5146 14.0746 57.8454 14.5205 58.024 15.033C57.9669 15.2763 57.8431 15.4988 57.6664 15.6754C57.4897 15.8521 57.2672 15.976 57.024 16.033C56.4868 15.7576 56.0107 15.3766 55.624 14.913C55.041 14.357 54.5089 13.843 54.5089 13.843C54.5089 13.843 53.963 14.33 53.394 14.892C53.0163 15.3575 52.5516 15.745 52.026 16.033C51.7556 15.9634 51.5113 15.8166 51.3228 15.6107C51.1343 15.4047 51.0096 15.1485 50.964 14.873C51.2989 14.3166 51.7175 13.8151 52.205 13.386C52.4541 13.1157 52.7214 12.8628 53.005 12.629C52.7817 12.5981 52.5656 12.5277 52.367 12.421C51.886 12.154 50.856 11.874 50.883 11.378C50.911 10.866 51.042 10.078 51.499 10.078C51.8894 10.2202 52.2643 10.4018 52.618 10.62C53.2083 10.8893 53.8512 11.0238 54.5 11.014V11.016Z" fill="#333333"/>
<path fill-rule="evenodd" clip-rule="evenodd" d="M106 17H103.012V11.986H105.386L105.696 9.979H103.012C103.012 9.979 103.012 7.69399 103.012 7.46899C103.021 7.3916 103.046 7.31693 103.085 7.24969C103.125 7.18246 103.178 7.12413 103.241 7.07843C103.304 7.03273 103.376 7.00062 103.452 6.98419C103.528 6.96776 103.607 6.96734 103.683 6.98297C104.122 6.98297 104.988 6.98297 104.988 6.98297L105.3 5C104.501 4.94555 103.698 4.95158 102.9 5.01801C102.343 5.09213 101.834 5.37177 101.473 5.802C101.132 6.26331 100.963 6.82932 100.996 7.40198V9.99298L98.996 9.979V11.986L100.996 11.993V17H96.996C96.2003 17 95.4373 16.6839 94.8747 16.1213C94.3121 15.5587 93.996 14.7956 93.996 14V5C93.996 4.20435 94.3121 3.44127 94.8747 2.87866C95.4373 2.31605 96.2003 2 96.996 2H105.996C106.792 2 107.555 2.31605 108.117 2.87866C108.68 3.44127 108.996 4.20435 108.996 5V14C108.996 14.795 108.68 15.5574 108.119 16.1199C107.557 16.6824 106.795 16.9989 106 17Z" fill="#333333"/>
<path fill-rule="evenodd" clip-rule="evenodd" d="M1.08398 5C1.20647 10.6216 4.14597 14 9.29959 14H9.59176V10.7838C11.4855 10.964 12.9175 12.2883 13.4922 14H16.168C15.4331 11.4414 13.5016 10.027 12.2956 9.48649C13.5016 8.81982 15.1975 7.1982 15.6026 5H13.1718C12.6442 6.78378 11.0804 8.4054 9.59176 8.55856V5H7.16089V11.2342C5.65343 10.8739 3.7503 9.12613 3.66551 5H1.08398Z" fill="#333333"/>
<path fill-rule="evenodd" clip-rule="evenodd" d="M379 4V16L383.5 13L388 16V4H379Z" fill="#333333"/>
<path fill-rule="evenodd" clip-rule="evenodd" d="M530 149C528.915 148.996 527.861 148.637 527 147.977V153.5C527 154.39 526.736 155.26 526.242 156C525.747 156.74 525.044 157.317 524.222 157.657C523.4 157.998 522.495 158.087 521.622 157.914C520.749 157.74 519.947 157.311 519.318 156.682C518.689 156.053 518.26 155.251 518.086 154.378C517.913 153.505 518.002 152.6 518.343 151.778C518.683 150.956 519.26 150.253 520 149.758C520.74 149.264 521.61 149 522.5 149C522.667 149.008 522.834 149.024 523 149.05V151.05C522.835 151.017 522.668 151 522.5 151C522.006 151 521.522 151.147 521.111 151.421C520.7 151.696 520.38 152.086 520.19 152.543C520.001 153 519.952 153.503 520.048 153.988C520.145 154.473 520.383 154.918 520.732 155.268C521.082 155.617 521.527 155.856 522.012 155.952C522.497 156.048 523 155.999 523.457 155.81C523.914 155.62 524.304 155.3 524.579 154.889C524.853 154.478 525 153.994 525 153.5V144V143H527V144C527 144.796 527.316 145.559 527.879 146.121C528.441 146.684 529.204 147 530 147C530.341 146.997 530.68 146.935 531 146.816V148.9C530.671 148.967 530.336 149 530 149Z" fill="#333333"/>
<path fill-rule="evenodd" clip-rule="evenodd" d="M530.03 106.026C530.35 106.232 531.35 106.857 531.59 107.079C531.731 107.143 531.847 107.252 531.919 107.389C531.992 107.526 532.016 107.683 531.99 107.836C531.91 108.403 530.71 108.313 530.38 108.712C529.804 109.168 529.117 109.463 528.39 109.566C528.223 109.58 528.061 109.633 527.917 109.72C527.773 109.806 527.651 109.925 527.56 110.066C526.65 110.674 525.58 110.998 524.485 110.998C523.39 110.998 522.32 110.674 521.41 110.066C521.319 109.925 521.197 109.806 521.053 109.72C520.909 109.633 520.747 109.58 520.58 109.566C519.853 109.463 519.166 109.168 518.59 108.712C518.26 108.312 517.09 108.404 517.01 107.836C517.012 107.692 517.05 107.55 517.12 107.424C517.189 107.297 517.289 107.19 517.41 107.111C517.904 106.714 518.426 106.351 518.97 106.026C519.34 105.826 520.19 105.275 519.99 104.592C519.788 104.283 519.526 104.018 519.22 103.811C518.737 103.471 518.318 103.05 517.98 102.566C517.963 102.496 517.961 102.424 517.976 102.353C517.991 102.283 518.022 102.217 518.067 102.161C518.111 102.105 518.168 102.059 518.233 102.028C518.297 101.997 518.368 101.981 518.44 101.982C518.85 101.982 519.42 101.966 519.67 101.982C520.15 102.014 519.97 101.282 519.98 100.377C520.04 99.3707 520.349 98.3951 520.88 97.538C521.283 97.0473 521.792 96.6538 522.369 96.387C522.945 96.1202 523.575 95.9869 524.21 95.997H524.79C525.421 95.9956 526.045 96.1297 526.619 96.3902C527.194 96.6507 527.705 97.0316 528.12 97.507C528.695 98.3525 528.995 99.3547 528.98 100.377C529 101.283 528.88 102.014 529.37 101.982C529.61 101.966 530.15 101.982 530.56 101.982C530.632 101.981 530.703 101.997 530.767 102.028C530.832 102.059 530.889 102.105 530.933 102.161C530.978 102.217 531.009 102.283 531.024 102.353C531.039 102.424 531.037 102.496 531.02 102.566C530.657 103.048 530.218 103.469 529.72 103.811C529.39 103.962 529.127 104.228 528.98 104.56C528.9 105.146 529.22 105.508 530.03 106.026Z" fill="#333333"/>
<path fill-rule="evenodd" clip-rule="evenodd" d="M529 63H525L523 65H521V63H516V50L518 48H533V59L529 63ZM531 50H519V60H522V63L525 60H529L531 58V50ZM527 52H529V57H527V52ZM523 52H525V57H523V52Z" fill="#333333"/>
<path fill-rule="evenodd" clip-rule="evenodd" d="M534 12.5987C533.998 13.3195 533.944 14.0392 533.84 14.7524C532.544 15.9413 530.927 16.7229 529.19 17.0001C528.672 16.6796 528.261 16.2119 528.01 15.6567C529.53 15.0263 530.863 14.0156 531.88 12.7217C529.725 14.2475 527.14 15.0455 524.5 14.9995C521.863 15.0244 519.284 14.2277 517.12 12.7197C518.137 14.0137 519.47 15.0243 520.99 15.6547C520.7 16.1839 520.297 16.6426 519.81 16.9981C518.066 16.7431 516.443 15.9585 515.16 14.7504C515.056 14.0372 515.002 13.3174 515 12.5966C515.001 10.4006 515.542 7.99793 516.21 5.91442C516.335 5.44958 516.489 4.9929 516.67 4.54696C517.17 3.41058 518.85 2.47028 521.1 2.00012H522.12L521.98 2.37723C520.1 2.79537 518.05 3.81572 517.89 4.82306C519.08 4.30688 521.87 2.97145 524.5 2.97145C527.13 2.97145 529.9 4.34091 531.12 4.83008C531.01 3.82074 529.08 2.89741 527.35 2.45126L527.18 2.00012H527.9C529.97 2.43227 531.55 3.26055 532.19 4.27288C532.455 4.78975 532.657 5.33694 532.79 5.90243C533.425 7.9928 533.998 10.3996 534 12.5987ZM521.5 7.98912C521.079 7.86248 520.628 7.87192 520.213 8.01614C519.797 8.16035 519.437 8.43198 519.185 8.7924C518.932 9.15282 518.8 9.58369 518.806 10.0237C518.813 10.4638 518.957 10.8906 519.22 11.2435C519.483 11.5965 519.851 11.8575 520.27 11.9896C520.69 12.1216 521.141 12.1179 521.558 11.9791C521.975 11.8402 522.339 11.5733 522.596 11.2161C522.853 10.859 522.991 10.4299 522.99 9.98979C523.047 9.52835 522.924 9.06278 522.646 8.68982C522.369 8.31687 521.958 8.06519 521.5 7.9871V7.98912ZM528.5 7.98912C528.079 7.86248 527.628 7.87192 527.213 8.01614C526.797 8.16035 526.437 8.43198 526.185 8.7924C525.932 9.15282 525.8 9.58369 525.806 10.0237C525.813 10.4638 525.957 10.8906 526.22 11.2435C526.483 11.5965 526.851 11.8575 527.27 11.9896C527.69 12.1216 528.141 12.1179 528.558 11.9791C528.975 11.8402 529.339 11.5733 529.596 11.2161C529.853 10.859 529.991 10.4299 529.99 9.98979C530.047 9.52835 529.924 9.06278 529.646 8.68982C529.369 8.31687 528.958 8.06519 528.5 7.9871V7.98912Z" fill="#333333"/>
<path fill-rule="evenodd" clip-rule="evenodd" d="M565.779 6.44812C565.798 6.26232 565.727 6.07904 565.589 5.95434L564.189 4.25382V4H568.538L571.899 11.4288L574.854 4H579V4.25382L577.802 5.4108C577.699 5.49016 577.648 5.62053 577.669 5.74965V14.251C577.648 14.3795 577.699 14.5098 577.802 14.5892L578.972 15.7462V16H573.089V15.7462L574.301 14.5609C574.42 14.4412 574.42 14.4059 574.42 14.2226V7.35128L571.052 15.9723H570.597L566.675 7.35128V13.1293C566.643 13.3718 566.722 13.6168 566.892 13.7918L568.467 15.7178V15.9723H564V15.7178L565.576 13.7918C565.744 13.6161 565.819 13.3699 565.779 13.1293V6.44812Z" fill="#333333"/>
<path d="M563 146.964C563 146.432 563.435 146 563.971 146H571.412C572.841 146 574 147.151 574 148.571V154.036C574 154.568 573.565 155 573.029 155H565.588C564.159 155 563 153.849 563 152.429V146.964Z" fill="#333333"/>
<path d="M578.633 146.153L575.9 147.945C575.33 148.318 575 148.871 575 149.455V151.545C575 152.129 575.33 152.682 575.9 153.056L578.633 154.847C579.176 155.203 580 154.899 580 154.343V146.657C580 146.101 579.176 145.798 578.633 146.153Z" fill="#333333"/>
<path d="M621.878 4H612V15H614.749V11.4212H620.017L622.421 15H625.5L622.849 11.4048C623.673 11.2729 624.265 10.9595 624.627 10.4648C624.989 9.97009 625.17 9.17841 625.17 8.12296V7.29835C625.17 6.67166 625.105 6.1769 624.989 5.79756C624.874 5.41829 624.676 5.08845 624.397 4.79161C624.101 4.51126 623.771 4.31334 623.377 4.18142C622.981 4.066 622.487 4 621.878 4ZM621.433 8.99698H614.749V6.42424H621.433C621.812 6.42424 622.076 6.49024 622.208 6.60566C622.339 6.72109 622.421 6.93551 622.421 7.24885V8.17246C622.421 8.5023 622.339 8.71664 622.208 8.83206C622.076 8.94748 621.812 8.99698 621.433 8.99698Z" fill="#333333"/>
<path d="M627 5C628.104 5 629 4.1046 629 3C629 1.8954 628.104 1 627 1C625.896 1 625 1.8954 625 3C625 4.1046 625.896 5 627 5Z" fill="#333333"/>
</svg>
